<svg id="Layer_1" data-name="Layer 1" xmlns="http://www.w3.org/2000/svg" viewBox="0 0 1500 481"><defs><style>.cls-1{fill:#6df295;}.cls-2,.cls-3{fill:#fff;}.cls-2{fill-rule:evenodd;}</style></defs><title>D3F3CT8D_16.02.19_EDIT02</title><path class="cls-1" d="M480,405V312.14H466.8V290.19h41.95V405Z"/><path class="cls-1" d="M555.09,407.59c-1.19,0-2.65-.08-4.39-.25a46.42,46.42,0,0,1-5.85-1,40.82,40.82,0,0,1-6.91-2.28A37,37,0,0,1,530.7,400a70.42,70.42,0,0,1-5.69-4.8,39.62,39.62,0,0,1-6.18-7.48A43.71,43.71,0,0,1,514,377.1a46.11,46.11,0,0,1-2-14.1,48.33,48.33,0,0,1,.9-9.6,51.66,51.66,0,0,1,2.44-8.45,53.68,53.68,0,0,1,3.74-7.89q2.19-3.82,4.95-8.05l24.56-38.86h35.77l-26.5,35a80.59,80.59,0,0,1,8.37.08,29.26,29.26,0,0,1,5.94,1.06,32.52,32.52,0,0,1,10.89,5.61,37.55,37.55,0,0,1,8.29,9,42.48,42.48,0,0,1,5.21,11.3,43.27,43.27,0,0,1,1.78,12.28,40.58,40.58,0,0,1-3.49,16.75,45.2,45.2,0,0,1-9.35,13.65,43.5,43.5,0,0,1-13.74,9.27A41.41,41.41,0,0,1,555.09,407.59Zm0-58.21a14.25,14.25,0,0,0-10.73,4.39,14.86,14.86,0,0,0-4.23,10.73,23.29,23.29,0,0,0,.65,4.47,11.59,11.59,0,0,0,3.91,5.93,21.48,21.48,0,0,0,3.73,2.77,12.84,12.84,0,0,0,6.83,1.63,15.29,15.29,0,0,0,5.86-1.14,14.36,14.36,0,0,0,8-8,15.23,15.23,0,0,0,1.13-5.85,14.71,14.71,0,0,0-4.47-10.74,15.34,15.34,0,0,0-10.65-4.22Z"/><path class="cls-1" d="M601.59,405V377.83h26.83V405Z"/><path class="cls-1" d="M736.88,387.26a57.22,57.22,0,0,1-20.41,15,60,60,0,0,1-84.63-54.7A58.49,58.49,0,0,1,635.9,326a62.38,62.38,0,0,1,11.38-18.61,60.12,60.12,0,0,1,44.56-19.84c1.73,0,4,.14,6.91.41a50.59,50.59,0,0,1,9.51,2,72.48,72.48,0,0,1,11,4.39,54.55,54.55,0,0,1,11.55,7.72,58.93,58.93,0,0,1,15.45,20.49,59.92,59.92,0,0,1,1.7,46.18A59,59,0,0,1,736.88,387.26Zm-20.33-60a30.21,30.21,0,0,0-6.83-6.18,35.19,35.19,0,0,0-7-3.49,28.24,28.24,0,0,0-6.34-1.55c-2-.21-3.47-.32-4.55-.32a32.07,32.07,0,0,0-32,32c0,1,.09,2.33.25,4.07a26.25,26.25,0,0,0,1.22,5.61,38.69,38.69,0,0,0,2.84,6.42,29.34,29.34,0,0,0,5.12,6.66,32.77,32.77,0,0,0,10.57,6.92,31.87,31.87,0,0,0,12,2.35c1.22,0,2.44-.1,3.65-.24a34,34,0,0,0,5-1,30,30,0,0,0,5.86-2.27,31.35,31.35,0,0,0,6-4,26.28,26.28,0,0,0,6.18-6.74,36.71,36.71,0,0,0,3.5-7.08,28.65,28.65,0,0,0,1.54-6.26,39.88,39.88,0,0,0,.33-4.63A30.82,30.82,0,0,0,716.55,327.26Z"/><path class="cls-1" d="M756.22,405V383.52q5.87-5.36,11.22-10.32t10.57-10l9.27-9q4.71-4.54,8.05-8.37a68.17,68.17,0,0,0,5.53-7.15,27.88,27.88,0,0,0,3.25-6.59,21.47,21.47,0,0,0,1-6.66,14,14,0,0,0-.08-1.71,10.47,10.47,0,0,0-.24-1.38,6.61,6.61,0,0,1-.24-.9c-.06-.27-.14-.62-.25-1.06a11.12,11.12,0,0,0-3.66-5,9.41,9.41,0,0,0-5.93-1.95,8.74,8.74,0,0,0-5.2,1.63,11.12,11.12,0,0,0-4.39,5.77,27,27,0,0,0-1.31,7.24,13.37,13.37,0,0,0-.16,2v2.52L755,332.43v-4.88a26.1,26.1,0,0,1,.25-3.42c.16-1.19.35-2.43.57-3.74a51,51,0,0,1,2.52-8.45,32.54,32.54,0,0,1,5.12-8.62,49.46,49.46,0,0,1,4.8-5.12,33.55,33.55,0,0,1,7-5,43.57,43.57,0,0,1,9.59-3.74A49.48,49.48,0,0,1,797.65,288a39.82,39.82,0,0,1,4,.16,51.76,51.76,0,0,1,5.69.73,41,41,0,0,1,14.06,5.45c1.2,1,2.63,2.22,4.32,3.74a31.62,31.62,0,0,1,4.87,5.77,35.72,35.72,0,0,1,4,8.13,32.33,32.33,0,0,1,1.62,10.65V325a11.34,11.34,0,0,1-.08,1.3c-.06.43-.14.92-.24,1.46-.22,1.2-.44,2.41-.65,3.66a21.25,21.25,0,0,1-1.14,4,42.35,42.35,0,0,1-3.82,7.65q-2.35,3.74-5.12,7.31t-5.78,6.91q-3,3.34-5.93,6.43l-14,14.47h37.88V405Z"/><path class="cls-1" d="M842.24,405V377.83h26.83V405Z"/><path class="cls-1" d="M885.65,405V312.14H872.48V290.19h41.95V405Z"/><path class="cls-1" d="M991.83,366.45,966.46,405H930.85l27-34.8a64.31,64.31,0,0,1-7.73.16,27,27,0,0,1-6.42-1.14,28.56,28.56,0,0,1-11-5.52,40.28,40.28,0,0,1-8.22-9.11,42.45,42.45,0,0,1-5.2-11.3,44,44,0,0,1-1.79-12.44A40.43,40.43,0,0,1,921,314.1a45.43,45.43,0,0,1,9.35-13.66,43.11,43.11,0,0,1,30.4-12.52A62.06,62.06,0,0,1,971,289.13q6.66,1.23,14.14,6.43a68.31,68.31,0,0,1,5.69,4.79,39.62,39.62,0,0,1,6.18,7.48,43.73,43.73,0,0,1,4.88,10.57,46.22,46.22,0,0,1,2,14.07,53.22,53.22,0,0,1-.81,9.59,44.38,44.38,0,0,1-2.44,8.45,65.88,65.88,0,0,1-3.82,8Q994.59,362.38,991.83,366.45ZM971.18,320.6a22.48,22.48,0,0,0-3.74-2.77,12.74,12.74,0,0,0-6.83-1.62,14.21,14.21,0,0,0-5.85,1.22,15.38,15.38,0,0,0-4.8,3.25,15,15,0,0,0,.15,21.21h0a15.4,15.4,0,0,0,10.65,4.22,14.24,14.24,0,0,0,10.73-4.38A14.94,14.94,0,0,0,975.73,331a24.1,24.1,0,0,0-.65-4.47A11.51,11.51,0,0,0,971.18,320.6Z"/><path class="cls-2" d="M412.07,170.1c0,50-41,90.62-91,90.62h-2.38V213.45h4.21c23.21,0,42-19.33,42-43.4s-18.82-43.44-42-43.58h-4.21v-47h2.77A90.62,90.62,0,0,1,412.07,170.1Z"/><polygon class="cls-3" points="121.74 75.92 309.65 75.92 309.65 263.83 121.74 263.83 121.74 75.92 121.74 75.92"/><path class="cls-3" d="M641.42,123.25H585.49v27.48h55.69v40.12H585.49v65.41H542V84.59h99.46Z"/><path class="cls-3" d="M897.57,148.79a58.88,58.88,0,0,0-4.13-6.57,42.51,42.51,0,0,0-34.54-17,43.41,43.41,0,0,0-18.47,3.9c-16.79,7-27,23.34-27,41.34a46.6,46.6,0,0,0,3.4,16.77c3.41,8,15.57,28,42.07,28a44.81,44.81,0,0,0,14.83-2.42c2.68-1,12.16-5.35,18.73-13.13a75.29,75.29,0,0,0,5.35-8h47.66c-3.65,11.19-5.83,16-8.51,21.16A89.13,89.13,0,0,1,880.78,257a87.55,87.55,0,0,1-21.39,2.44c-43.53,0-66.63-26.75-75.38-39.4-5.59-8-14.83-23.82-14.83-48.39,0-46.69,30.63-70.76,44.49-79A89.29,89.29,0,0,1,858.42,81a88.24,88.24,0,0,1,56.66,20.42c21.15,17.28,27.23,37.46,30.15,47.43Z"/><path class="cls-3" d="M1051.57,123.25h-34.29v133H973.76V123H940.2V84.59h111.37Z"/><path class="cls-2" d="M1284.25,170.11c0-26.08-20.38-45-45.53-45.14l-10.16-.09v90.49h10.16C1263.87,215.36,1284.25,196.19,1284.25,170.11Zm46.09.33c0,47.39-38.8,85.8-86.18,85.8h-60.84V84.64h61.21a85.81,85.81,0,0,1,85.81,85.8Z"/><path class="cls-3" d="M1310.67,88.53V84.41h15.83v4.15h-5.43v14.62h-5V88.53Z"/><path class="cls-3" d="M1344.28,90.07h0l-3.6,13.11h-4l-3.59-13.11h0l-.19-.81h0v13.92h-4.42V84.41h6.89l2.91,11a13.23,13.23,0,0,1,.4,2.87v.91a16.64,16.64,0,0,1,.11-2,13.54,13.54,0,0,1,.31-1.8l2.92-11h6.88v18.77h-4.64Z"/><path class="cls-3" d="M515.57,245.93a55.73,55.73,0,0,1-19.51,11,75.14,75.14,0,0,1-22.19,3.17,81.51,81.51,0,0,1-17.81-2,64.4,64.4,0,0,1-16.34-6,50.73,50.73,0,0,1-13.53-10.48,46.69,46.69,0,0,1-9.39-15.49,45.18,45.18,0,0,1-1.59-5.36c-.4-1.79-.77-3.58-1.09-5.37a22.87,22.87,0,0,1-.61-4.51q-.13-2.56-.61-6.22h43.41a15.73,15.73,0,0,1,.24,2.56,6.26,6.26,0,0,0,.24,1.83c.16.65.29,1.18.37,1.58s.2.94.37,1.59A15.75,15.75,0,0,0,464,220a18.37,18.37,0,0,0,9.88,2.81q7.8,0,12.19-5.37A19,19,0,0,0,490.45,205a33.23,33.23,0,0,0-1-6.58q-1-4.39-5.85-7.81a19.55,19.55,0,0,0-8.05-3.17A71.5,71.5,0,0,0,467,187H455.57V154h6.1a39.84,39.84,0,0,0,11.59-1.58q5.24-1.59,8.65-7.44a18.64,18.64,0,0,0,1.71-4.51,29.06,29.06,0,0,0,.73-7.2,20.76,20.76,0,0,0-2.68-10.36q-2.69-4.75-9-4.76-5.87,0-9,3.91a18,18,0,0,0-3.9,8.78v3.65H417.53c.49-4.22,1-8.08,1.59-11.58a56.63,56.63,0,0,1,2.43-9.76,37.86,37.86,0,0,1,4.39-8.65,50.36,50.36,0,0,1,7.2-8.3q1.22-1.22,5.36-4.63A61,61,0,0,1,448,86c1.3-.49,2.69-1,4.15-1.46s3.57-1.06,6.34-1.71q2-.48,5.85-1.1a61.17,61.17,0,0,1,9.27-.61,57.22,57.22,0,0,1,13.05,1.35,64.38,64.38,0,0,1,8.17,2.31,49.82,49.82,0,0,1,22.68,16.46A42.39,42.39,0,0,1,526.29,128a40,40,0,0,1-13.17,30.24c-.82.65-1.71,1.38-2.68,2.19s-2.69,2-5.12,3.66l8.29,4.64q9.25,4.88,13,10.6a61.54,61.54,0,0,1,5.49,9.88c.49,1.3,1.14,3.34,2,6.1a38.22,38.22,0,0,1,1.22,10.49,51.08,51.08,0,0,1-.73,7.8,49.7,49.7,0,0,1-2.8,10,58.72,58.72,0,0,1-6,11.22A54.45,54.45,0,0,1,515.57,245.93Z"/><path class="cls-3" d="M746.58,245.93a55.73,55.73,0,0,1-19.51,11,75.14,75.14,0,0,1-22.19,3.17,81.51,81.51,0,0,1-17.81-2,64.4,64.4,0,0,1-16.34-6,50.73,50.73,0,0,1-13.53-10.48,46.69,46.69,0,0,1-9.39-15.49,43.34,43.34,0,0,1-1.58-5.36q-.62-2.69-1.1-5.37a22.87,22.87,0,0,1-.61-4.51q-.13-2.56-.61-6.22h43.41a15.73,15.73,0,0,1,.24,2.56,5.66,5.66,0,0,0,.25,1.83c.16.65.28,1.18.36,1.58s.2.94.37,1.59A15.73,15.73,0,0,0,695,220a18.37,18.37,0,0,0,9.88,2.81q7.8,0,12.19-5.37A19,19,0,0,0,721.46,205a33.23,33.23,0,0,0-1-6.58q-1-4.39-5.85-7.81a19.53,19.53,0,0,0-8-3.17,71.5,71.5,0,0,0-8.53-.48H686.59V154h6.09a39.84,39.84,0,0,0,11.59-1.58q5.24-1.59,8.65-7.44a18.64,18.64,0,0,0,1.71-4.51,29.06,29.06,0,0,0,.73-7.2,20.76,20.76,0,0,0-2.68-10.36q-2.68-4.75-9-4.76-5.85,0-9,3.91a18,18,0,0,0-3.9,8.78v3.65H648.54c.49-4.22,1-8.08,1.59-11.58a56.43,56.43,0,0,1,2.44-9.76A37.07,37.07,0,0,1,657,104.5a49.43,49.43,0,0,1,7.19-8.3q1.22-1.22,5.36-4.63A61.41,61.41,0,0,1,679,86c1.3-.49,2.68-1,4.14-1.46s3.58-1.06,6.34-1.71q1.95-.48,5.86-1.1a61,61,0,0,1,9.26-.61,56.85,56.85,0,0,1,13,1.35,64.38,64.38,0,0,1,8.17,2.31,49.82,49.82,0,0,1,22.68,16.46A42.39,42.39,0,0,1,757.23,128a40,40,0,0,1-13.17,30.24c-.82.65-1.71,1.38-2.68,2.19s-2.68,2-5.12,3.66l8.29,4.64q9.26,4.88,13,10.6a61.48,61.48,0,0,1,5.48,9.88c.49,1.3,1.14,3.34,2,6.1a37.47,37.47,0,0,1,1.22,10.49,51.08,51.08,0,0,1-.73,7.8,49.7,49.7,0,0,1-2.8,10,58.72,58.72,0,0,1-6,11.22A54.33,54.33,0,0,1,746.58,245.93Z"/><path class="cls-3" d="M1150.15,249.84q-4.89,3.42-14.51,7.07t-24.51,3.66c-2.28,0-5.69-.21-10.24-.61a62.77,62.77,0,0,1-15.12-3.54,58.47,58.47,0,0,1-14.85-7.93,55.54,55.54,0,0,1-19.56-26.33,49.77,49.77,0,0,1-2.8-16.71,43.77,43.77,0,0,1,2.31-14.75,52.07,52.07,0,0,1,5.48-11.22,45,45,0,0,1,6.56-7.93,47.6,47.6,0,0,1,5.58-4.63l6.06-3.9q-4.36-3.42-6.91-5.73a36.37,36.37,0,0,1-4.25-4.52,31.48,31.48,0,0,1-4.36-8.9,42.66,42.66,0,0,1-1.69-13,39.52,39.52,0,0,1,1.69-12.69,53.12,53.12,0,0,1,3.15-7.56,90.82,90.82,0,0,1,5.94-9,43,43,0,0,1,10-9.51A60.37,60.37,0,0,1,1093,84.67a61.2,61.2,0,0,1,20.36-3c1.47,0,3.33.09,5.61.25a64.23,64.23,0,0,1,7.68,1.09,53.16,53.16,0,0,1,9.15,2.81,49,49,0,0,1,9.76,5.36,54.18,54.18,0,0,1,14.26,16,40,40,0,0,1,5.73,20.85q0,10.24-3.29,17.19c-2.19,4.64-4.11,7.85-5.73,9.63a18.41,18.41,0,0,1-2.93,3.18c-1.14,1-2.84,2.35-5.12,4.14,2.28,1.3,3.86,2.2,4.76,2.68a9.38,9.38,0,0,1,2.07,1.47c.5.34,1,.7,1.46,1.09s1.06.86,1.71,1.35a36.15,36.15,0,0,1,8.9,9.87,53.84,53.84,0,0,1,5,10.61,47.29,47.29,0,0,1,2.2,9.39,62.87,62.87,0,0,1,.48,6.71,44.49,44.49,0,0,1-3,17,63.73,63.73,0,0,1-7.08,13,54.17,54.17,0,0,1-8.17,9.27A80.63,80.63,0,0,1,1150.15,249.84Zm-38.43-67.56a20,20,0,0,0-8,1.59,20.87,20.87,0,0,0-10.85,10.85,19.37,19.37,0,0,0-1.59,7.8,21,21,0,0,1,.61,3.42,6.9,6.9,0,0,0,.61,2.44,20.32,20.32,0,0,0,13,13.41,28.52,28.52,0,0,0,6.22,1,19.32,19.32,0,0,0,14.39-6,19.69,19.69,0,0,0,5.85-14.27,20.14,20.14,0,0,0-1.58-8,19.61,19.61,0,0,0-4.39-6.34,22,22,0,0,0-6.47-4.27A19.28,19.28,0,0,0,1111.72,182.28Zm-.24-64.62a14.75,14.75,0,0,0-11.22,4.63,15.69,15.69,0,0,0-4.39,11.22,25.35,25.35,0,0,0,.61,4.51,12.25,12.25,0,0,0,4,6.22q3.42,3.42,6.46,4a25.58,25.58,0,0,0,4.52.61,15,15,0,0,0,11.21-4.51,15.55,15.55,0,0,0-11.21-26.7Z"/></svg>
