<?xml version="1.0" encoding="utf-8"?>
<!-- Generator: Adobe Illustrator 22.0.1, SVG Export Plug-In . SVG Version: 6.00 Build 0)  -->
<svg version="1.1" id="Layer_1" xmlns="http://www.w3.org/2000/svg" xmlns:xlink="http://www.w3.org/1999/xlink" x="0px" y="0px"
	 viewBox="0 0 1500 834.8" style="enable-background:new 0 0 1500 834.8;" xml:space="preserve">
<style type="text/css">
	.st0{fill:#1D1D1B;}
</style>
<path class="st0" d="M1333.2,493.3V276.2h-54.7v119.6l-25.5-39c-9.2-13.9-18.4-27.4-27.7-40.4c-9.2-13-18.7-26.4-28.3-40.1h-48.3
	v217.1h54.4V374.6l81.5,118.7H1333.2z M1079.9,384.4c0,4.7-0.5,9.1-1.5,13.1s-2.3,7.5-3.8,10.6s-3.1,5.7-4.8,7.8
	c-1.6,2.2-3.1,3.8-4.3,5.1c-1.2,1.2-3,2.8-5.4,4.8c-2.4,1.9-5.1,3.8-8.3,5.7c-3.2,1.8-6.9,3.4-11.2,4.6c-4.3,1.2-9,1.8-14.1,1.8
	c-7,0-13.8-1.4-20.4-4.2c-6.7-2.8-12.5-6.6-17.4-11.5c-3.5-3.5-6.3-7.1-8.5-10.9s-3.7-7.4-4.8-10.8c-1-3.4-1.7-6.5-2-9.4
	s-0.5-5.1-0.5-6.8c0-7.2,1.4-14.1,4.2-20.8c2.8-6.7,6.7-12.5,11.8-17.4c7.2-6.6,14.3-10.8,21.5-12.6c7.2-1.8,12.5-2.8,16-2.8
	c11.1,0,21.2,3.2,30.4,9.5c9.2,6.4,15.8,14.7,19.7,24.9C1078.8,371.7,1079.9,378.1,1079.9,384.4 M1127.1,435.6
	c3.6-7.3,6.3-14.1,8.1-20.6c1.8-6.5,3-12.3,3.5-17.7c0.5-5.3,0.8-9.6,0.8-12.9c0-16.6-3.5-32.5-10.5-47.7s-16.7-28.1-29.2-38.7
	c-2.5-2-5.9-4.6-10.5-7.7c-4.5-3.1-9.9-6-16.1-8.9c-6.3-2.9-13.3-5.3-21.2-7.4c-7.9-2-16.4-3.1-25.7-3.1c-16.2,0-31.9,3.5-47.2,10.5
	s-28.2,16.7-38.9,29.2c-6.1,7.2-11,14.4-14.6,21.7c-3.6,7.3-6.3,14.2-8.1,20.9c-1.8,6.7-3,12.7-3.5,18s-0.8,9.6-0.8,12.9
	c0,14.8,2.9,29.2,8.8,43.2c5.8,14,14,26.3,24.4,36.7c10.5,10.5,22.7,18.6,36.7,24.4s28.4,8.8,43.2,8.8c16.6,0,32.5-3.4,47.8-10.3
	s28.1-16.8,38.6-29.7C1118.7,450.1,1123.5,442.9,1127.1,435.6 M851.9,379.7c0.1,2.6,0.2,4.6,0.2,6c0,1.2-0.2,4.2-0.5,8.9
	c-0.3,4.7-1.4,9.9-3.2,15.7c-1.8,5.7-4.7,11.4-8.5,16.9s-9.2,9.7-16.1,12.6c-3.9,1.6-7.6,2.6-11.2,2.9c-3.6,0.3-7.5,0.5-11.8,0.5
	h-31.1V325.4h21.5c5.1,0,9.8,0.2,14,0.5s8.7,1.3,13.4,2.9c9.2,3.5,16.4,9,21.5,16.6s8.6,16,10.5,25.2
	C851.4,374.1,851.8,377.1,851.9,379.7 M895.1,438.9c3.7-7.8,6.4-15.2,8.1-22.3c1.7-7.1,2.8-13.5,3.2-19.2s0.6-10.5,0.6-14.1
	c0-6.8-0.4-12.3-1.1-16.8c-0.7-4.4-1.4-8-2-10.9c-1.8-8.2-4.6-16.2-8.3-24.1s-8.1-15.1-13.4-21.7c-5.2-6.6-11.3-12.3-18.3-17.4
	c-7-5-14.6-8.9-22.7-11.5c-4.5-1.4-9-2.4-13.4-2.9s-8.5-1-12.1-1.4c-3.9-0.4-7.2-0.6-10-0.5s-4.9,0.2-6.3,0.2H714v217.1h83
	c8.6,0,16.7-0.3,24.3-0.9s15.5-2.5,23.7-5.5c9.6-3.7,17.2-8,22.8-13.1c5.5-5,9.5-9,12-11.8C886.3,454.3,891.4,446.7,895.1,438.9
	 M701.7,493.3V276.2H647v119.6l-25.5-39c-9.2-13.9-18.4-27.4-27.7-40.4c-9.2-13-18.7-26.4-28.3-40.1h-48.3v217.1h54.4V374.6
	l81.5,118.7H701.7z M448.4,384.4c0,4.7-0.5,9.1-1.5,13.1s-2.3,7.5-3.8,10.6s-3.1,5.7-4.8,7.8c-1.6,2.2-3.1,3.8-4.3,5.1
	c-1.2,1.2-3,2.8-5.4,4.8c-2.4,1.9-5.1,3.8-8.3,5.7c-3.2,1.8-6.9,3.4-11.2,4.6c-4.3,1.2-9,1.8-14.1,1.8c-7,0-13.8-1.4-20.4-4.2
	c-6.7-2.8-12.5-6.6-17.4-11.5c-3.5-3.5-6.3-7.1-8.5-10.9s-3.7-7.4-4.8-10.8c-1-3.4-1.7-6.5-2-9.4s-0.5-5.1-0.5-6.8
	c0-7.2,1.4-14.1,4.2-20.8c2.8-6.7,6.7-12.5,11.8-17.4c7.2-6.6,14.3-10.8,21.5-12.6c7.2-1.8,12.5-2.8,16-2.8
	c11.1,0,21.2,3.2,30.4,9.5c9.2,6.4,15.8,14.7,19.7,24.9C447.3,371.7,448.4,378.1,448.4,384.4 M495.6,435.6
	c3.6-7.3,6.3-14.1,8.1-20.6c1.8-6.5,3-12.3,3.5-17.7c0.5-5.3,0.8-9.6,0.8-12.9c0-16.6-3.5-32.5-10.5-47.7s-16.7-28.1-29.2-38.7
	c-2.5-2-5.9-4.6-10.5-7.7c-4.5-3.1-9.9-6-16.1-8.9c-6.3-2.9-13.3-5.3-21.2-7.4c-7.9-2-16.4-3.1-25.7-3.1c-16.2,0-31.9,3.5-47.2,10.5
	c-15.3,7-28.2,16.7-38.9,29.2c-6.1,7.2-11,14.4-14.6,21.7c-3.6,7.3-6.3,14.2-8.1,20.9c-1.8,6.7-3,12.7-3.5,18s-0.8,9.6-0.8,12.9
	c0,14.8,2.9,29.2,8.8,43.2c5.8,14,14,26.3,24.4,36.7c10.5,10.5,22.7,18.6,36.7,24.4s28.4,8.8,43.2,8.8c16.6,0,32.5-3.4,47.8-10.3
	s28.1-16.8,38.6-29.7C487.2,450.1,492,442.9,495.6,435.6 M287.9,493.3v-51h-65.2v-166h-56v217.1h121.2V493.3z"/>
<rect y="24.5" class="st0" width="237.6" height="237.6"/>
<path class="st0" d="M367.1,143.6c0,63.3-51.8,114.6-115.1,114.6h-3v-59.8h5.3c29.3,0,53.1-24.5,53.1-54.9s-23.7-54.9-53.1-55
	l-5.3-0.1V29h3.5C315.8,29,367.1,80.3,367.1,143.6"/>
<polygon class="st0" points="498.7,83.8 432.6,83.8 432.6,116.4 498.7,116.4 498.7,167.4 432.9,167.4 432.9,203.1 499.3,203.1 
	499.3,252.6 375.4,252.6 375.4,35.5 498.7,35.5 "/>
<polygon class="st0" points="637.8,84.4 567.1,84.4 567.1,119.1 637.5,119.1 637.5,169.9 567.1,169.9 567.1,252.6 512.1,252.6 
	512.1,35.5 637.8,35.5 "/>
<polygon class="st0" points="774.7,83.8 708.6,83.8 708.6,116.4 774.7,116.4 774.7,167.4 708.9,167.4 708.9,203.1 775.3,203.1 
	775.3,252.6 651.4,252.6 651.4,35.5 774.7,35.5 "/>
<path class="st0" d="M945.1,116.7c-1.5-3.1-3.4-5.5-5.2-8.3c-10.5-13.9-26.1-21.5-43.7-21.5c-11.4,0-19.4,3.1-23.4,4.9
	c-21.2,8.9-34.1,29.5-34.1,52.3c0.3,10.5,2.8,17.5,4.3,21.2c4.3,10.2,19.7,35.4,53.2,35.4c8.9,0,15.1-1.9,18.8-3.1
	c3.4-1.2,15.4-6.8,23.7-16.6c2.2-2.8,3.4-4.6,6.8-10.1h60.3c-4.6,14.2-7.4,20.3-10.8,26.7c-20.9,38.7-55.6,52.3-71,56
	c-4.6,1.2-14.4,3.1-27,3.1c-55,0-84.2-33.8-95.3-49.8c-7.1-10.1-18.7-30.1-18.7-61.2c0-59,38.7-89.5,56.2-99.9
	c8.8-5.4,28.8-14.9,56.4-14.9c14.1,0,43,2.5,71.6,25.8c26.8,21.8,34.4,47.4,38.1,60H945.1z"/>
<polygon class="st0" points="1139.1,84.4 1095.8,84.4 1095.8,252.6 1040.7,252.6 1040.7,84.1 998.3,84.1 998.3,35.5 1139.1,35.5 "/>
<polygon class="st0" points="1275.8,83.8 1209.7,83.8 1209.7,116.4 1275.8,116.4 1275.8,167.4 1210,167.4 1210,203.1 1276.4,203.1 
	1276.4,252.6 1152.5,252.6 1152.5,35.5 1275.8,35.5 "/>
<path class="st0" d="M1476.5,144c0,59.9-49.1,108.5-109,108.5h-76.9v-217h77.4C1427.9,35.5,1476.5,84.1,1476.5,144 M1418.2,143.6
	c0-33-25.8-56.9-57.6-57.1l-12.8-0.1v114.4h12.8C1392.5,200.8,1418.2,176.6,1418.2,143.6"/>
<polygon class="st0" points="1451.6,40.5 1451.6,35.3 1471.6,35.3 1471.6,40.5 1464.8,40.5 1464.8,59 1458.5,59 1458.5,40.5 "/>
<path class="st0" d="M1494.1,42.4L1494.1,42.4l-4.5,16.6h-5l-4.5-16.6l-0.2-1c0.1,0.4,0,17.6,0,17.6h-5.6V35.3h8.7l3.7,13.9
	c0.2,0.8,0.4,2.1,0.5,3.6c0,0.4,0.1,0.8,0.1,1.1c0-0.8,0-1.7,0.1-2.5c0.1-1,0.3-1.7,0.4-2.3l3.7-13.9h8.7v23.7h-5.9V42.4H1494.1z"/>
<path class="st0" d="M1157.8,762.4c1.4,0.6,2.7,1.5,3.8,2.5c1.1,1.1,2,2.3,2.6,3.7s0.9,3,0.9,4.7c0,3.3-1.1,6.1-3.5,8.4
	c-2.3,2.4-5.1,3.5-8.5,3.5c-0.9,0-2.1-0.2-3.7-0.6c-1.6-0.4-3.1-1.3-4.7-2.9c-1.5-1.4-2.5-3.1-3-5c-0.2-0.4-0.3-0.9-0.4-1.4
	c0-0.6-0.2-1.2-0.4-2c0-1.6,0.3-3.2,0.9-4.6c0.6-1.4,1.5-2.7,2.6-3.8s2.4-2,3.8-2.6s3-0.9,4.7-0.9
	C1154.9,761.4,1156.4,761.8,1157.8,762.4 M1159.7,725.9c1.7,1.7,2.6,3.9,2.6,6.6c0,2.6-0.9,4.8-2.6,6.5c-1.7,1.8-3.9,2.7-6.6,2.7
	c-0.6,0-1.5-0.1-2.7-0.4c-1.2-0.2-2.5-1-3.8-2.4c-1.3-1.2-2.1-2.5-2.4-3.7c-0.2-1.2-0.4-2.1-0.4-2.7c0-2.6,0.9-4.8,2.6-6.6
	s3.9-2.7,6.6-2.7S1158,724.2,1159.7,725.9 M1179.8,798.1c1.6-1.4,3.2-3.3,4.8-5.5c1.6-2.2,3-4.8,4.2-7.7s1.8-6.3,1.8-10
	c0-1-0.1-2.3-0.3-4c-0.2-1.7-0.6-3.5-1.3-5.5c-0.7-2-1.7-4.1-2.9-6.3c-1.3-2.2-3-4.1-5.2-5.8c-0.4-0.3-0.7-0.6-1-0.8
	s-0.6-0.5-0.9-0.6c-0.3-0.3-0.7-0.6-1.2-0.9c-0.5-0.3-1.5-0.8-2.8-1.6c1.3-1.1,2.3-1.9,3-2.4c0.7-0.6,1.2-1.2,1.7-1.9
	c1-1.1,2.1-2.9,3.4-5.7c1.3-2.7,1.9-6.1,1.9-10.1c0-4.4-1.1-8.5-3.4-12.3s-5.1-6.9-8.4-9.4c-1.9-1.3-3.8-2.4-5.8-3.2
	c-1.9-0.8-3.7-1.3-5.4-1.7c-1.7-0.3-3.2-0.6-4.5-0.6c-1.3-0.1-2.4-0.1-3.3-0.1c-4.6,0-8.6,0.6-12,1.8s-6.3,2.7-8.8,4.4
	c-2.4,1.7-4.4,3.6-5.9,5.6s-2.6,3.8-3.5,5.3c-0.6,1.1-1.2,2.5-1.9,4.5c-0.7,1.9-1,4.4-1,7.5s0.3,5.6,1,7.7c0.7,2.1,1.5,3.8,2.6,5.2
	c0.7,0.9,1.5,1.8,2.5,2.7s2.4,2,4.1,3.4l-3.6,2.3c-0.9,0.6-2,1.5-3.3,2.7s-2.6,2.8-3.9,4.7c-1.2,1.9-2.3,4.1-3.2,6.6
	c-0.9,2.5-1.4,5.4-1.4,8.7c0,3.5,0.6,6.7,1.7,9.8s2.6,6,4.6,8.6s4.3,4.9,6.9,6.9c2.7,2,5.6,3.5,8.8,4.7c3.3,1.1,6.2,1.8,8.9,2.1
	c2.7,0.2,4.7,0.4,6,0.4c5.8,0,10.7-0.7,14.5-2.2c3.8-1.4,6.6-2.8,8.6-4.2C1176.9,800.6,1178.2,799.5,1179.8,798.1 M1111.7,805.3
	V703.8h-37.1v19.4h11.6v82.1H1111.7z M1047,754.5c0,1.1-0.1,2.4-0.3,4.1c-0.2,1.7-0.6,3.5-1.4,5.5c-0.7,2-1.8,4.1-3.1,6.3
	c-1.3,2.2-3.2,4.1-5.5,6c-1.7,1.4-3.5,2.6-5.3,3.5s-3.5,1.6-5.2,2c-1.6,0.4-3.1,0.7-4.4,0.9c-1.3,0.1-2.4,0.2-3.2,0.2
	c-3.6,0-7.2-0.7-10.6-2.1c-3.5-1.4-6.6-3.4-9.3-6.1c-1.9-1.9-3.4-3.9-4.5-5.9s-1.9-3.9-2.5-5.7s-0.9-3.4-1.1-5
	c-0.1-1.5-0.2-2.7-0.2-3.6c0-5.7,1.5-10.8,4.6-15.5c3.1-4.6,7.1-8.1,12.1-10.3c3.7-1.7,7.6-2.6,11.6-2.6c1,0,2.3,0.1,4,0.3
	s3.6,0.6,5.6,1.4c2,0.7,4.1,1.8,6.2,3.1s4.1,3.2,6,5.5C1044.8,741.7,1047,747.7,1047,754.5 M1068.3,773.2c2.3-6,3.4-12.2,3.4-18.5
	c0-7.8-1.6-15.2-4.9-22.3s-7.8-13.1-13.7-18.1c-3.4-2.9-6.8-5.2-10.2-6.8c-3.5-1.7-6.7-3-9.8-3.9c-3.1-0.9-5.9-1.5-8.4-1.7
	s-4.6-0.4-6.1-0.4c-7.5,0-14.7,1.5-21.6,4.6c-6.9,3.1-12.8,7.4-17.8,12.9c-4.3,4.9-7.7,10.4-10.1,16.5c-2.4,6.1-3.6,12.4-3.6,19.1
	c0,7,1.4,13.8,4.1,20.3c2.7,6.6,6.5,12.3,11.4,17.2s10.6,8.7,17.2,11.4c6.6,2.7,13.3,4.1,20.2,4.1c7.6,0,14.9-1.6,21.9-4.7
	c7-3.1,13.1-7.5,18-13.3C1062.8,784.7,1066.1,779.3,1068.3,773.2 M961.3,805.3v-23.7h-33.5l12.4-12.8c1.7-1.8,3.5-3.7,5.2-5.7
	c1.8-2,3.5-4,5.1-6.1s3.1-4.3,4.5-6.5s2.5-4.5,3.4-6.8c0.5-1.2,0.8-2.4,1-3.5s0.4-2.2,0.6-3.2c0.1-0.5,0.2-0.9,0.2-1.3
	c0-0.4,0.1-0.8,0.1-1.1v-2c0-3.5-0.5-6.7-1.4-9.4c-1-2.7-2.1-5.1-3.5-7.2c-1.4-2.1-2.8-3.8-4.3-5.1s-2.8-2.4-3.8-3.3
	c-2.2-1.3-4.4-2.4-6.5-3.2s-4.1-1.3-6-1.7c-1.9-0.3-3.5-0.6-5-0.6c-1.5-0.1-2.7-0.1-3.5-0.1c-4.3,0-8.1,0.4-11.3,1.3
	c-3.2,0.9-6,2-8.5,3.3c-2.4,1.3-4.5,2.8-6.2,4.4c-1.7,1.6-3.1,3.1-4.2,4.5c-2,2.5-3.5,5-4.5,7.6s-1.8,5.1-2.2,7.5
	c-0.2,1.2-0.4,2.3-0.5,3.3c-0.1,1.1-0.2,2.1-0.2,3v4.3l25.3,0.1v-2.2c0-0.6,0-1.2,0.1-1.8c0.1-2.2,0.5-4.3,1.2-6.4
	c0.7-2.1,2-3.8,3.9-5.1c1.3-1,2.9-1.4,4.6-1.4c2,0,3.8,0.6,5.2,1.7c1.5,1.1,2.6,2.6,3.2,4.5c0.1,0.4,0.2,0.7,0.2,0.9
	s0.1,0.5,0.2,0.8c0.1,0.4,0.2,0.8,0.2,1.2s0.1,0.9,0.1,1.5c0,2-0.3,4-0.9,5.9c-0.6,1.9-1.6,3.9-2.9,5.8c-1.3,2-2.9,4.1-4.9,6.3
	s-4.3,4.7-7.1,7.4l-8.2,7.9c-3.1,3-6.2,5.9-9.3,8.8c-3.2,2.9-6.5,6-9.9,9.1v19L961.3,805.3L961.3,805.3z M855.5,805.3v-23.9H825
	v-77.6h-26.2v101.5H855.5z M793.1,703.8h-25.9v101.5h25.9V703.8z M736.6,735.7c0.2,1.2,0.4,2.5,0.4,3.9c0,2.2-0.3,4.1-1,5.8
	c-0.7,1.6-1.5,3-2.4,4.1s-1.9,2-2.9,2.6c-1.1,0.6-2,1.1-2.9,1.4c-0.8,0.2-1.5,0.3-2.2,0.4c-0.7,0.1-1.4,0.2-2.2,0.3
	c-0.4,0.1-0.9,0.1-1.6,0.1c-0.5,0-0.9,0-1.1,0.1h-8.2v-27.9h8.6c2.8,0,5.4,0.3,7.8,0.8c2.4,0.5,4.5,2.1,6.1,4.7
	C735.9,733.2,736.4,734.5,736.6,735.7 M764.6,805.3L740,770.6c2.7-1.1,4.6-1.9,5.8-2.4c1.2-0.6,2.3-1.2,3.3-2c1.2-0.9,2.7-2,4.2-3.5
	c1.6-1.5,3.1-3.4,4.5-5.6c1.4-2.3,2.6-4.9,3.5-8c1-3.1,1.4-6.6,1.4-10.6c0-3.9-0.4-7.4-1.3-10.4c-0.9-3-1.9-5.7-3.2-8
	s-2.7-4.2-4.1-5.8c-1.4-1.6-2.8-2.9-4-3.8c-4-3.1-8.1-4.9-12.2-5.6c-4.1-0.7-8.6-1-13.4-1h-37.7v101.5h25.7v-32.5l20.7,32.5h31.4
	V805.3z M654.7,731.5c1.1,1.9,1.7,4.1,1.7,6.6c0,1.8-0.3,3.4-0.8,4.6c-0.5,1.2-1.2,2.3-1.9,3.1s-1.5,1.5-2.3,1.9
	c-0.8,0.5-1.6,0.8-2.2,1c-0.9,0.2-1.7,0.4-2.4,0.5c-0.8,0.1-2,0.2-3.6,0.2h-7.6v-22.7h8.1h2.9c0.9,0,1.9,0.2,2.9,0.6
	C651.8,728.2,653.6,729.6,654.7,731.5 M670.1,765.8c2.7-2.3,5-4.8,6.9-7.8c1.9-2.9,3.3-6.1,4.2-9.6s1.4-7,1.4-10.6
	s-0.5-7.2-1.4-10.6c-0.9-3.4-2.3-6.5-4.1-9.3s-4.1-5.3-6.9-7.4c-2.8-2.1-6-3.7-9.6-4.9c-3.1-1-6-1.5-8.9-1.7
	c-2.9-0.1-5.9-0.2-9.1-0.2H609v101.5h26.5v-32.4h9.6c2.1,0,3.9,0,5.4-0.1c1.5,0,2.8-0.1,4-0.3c1.2-0.1,2.3-0.3,3.2-0.6
	c1-0.2,2-0.6,3-0.9C664.2,769.8,667.3,768.1,670.1,765.8 M565,769.9h-20.7l10.1-31.5L565,769.9z M606.7,805.3l-41.1-102.1h-21.1
	l-40.7,102.1H533l4.7-14.2h34.1l5,14.2H606.7z M480,724.6v-20.8h-66.7v22.6h40.5l-37,78.9h27.6L480,724.6z M390.8,754.5
	c0,1.1-0.1,2.4-0.3,4.1c-0.2,1.7-0.6,3.5-1.4,5.5c-0.7,2-1.8,4.1-3.1,6.3c-1.3,2.2-3.2,4.1-5.5,6c-1.7,1.4-3.5,2.6-5.3,3.5
	s-3.5,1.6-5.2,2c-1.6,0.4-3.1,0.7-4.4,0.9c-1.3,0.1-2.4,0.2-3.2,0.2c-3.6,0-7.2-0.7-10.6-2.1c-3.5-1.4-6.6-3.4-9.3-6.1
	c-1.9-1.9-3.4-3.9-4.5-5.9s-1.9-3.9-2.5-5.7s-0.9-3.4-1.1-5c-0.1-1.5-0.2-2.7-0.2-3.6c0-5.7,1.5-10.8,4.6-15.5
	c3.1-4.6,7.1-8.1,12.1-10.3c3.7-1.7,7.6-2.6,11.6-2.6c1,0,2.3,0.1,4,0.3s3.6,0.6,5.6,1.4c2,0.7,4.1,1.8,6.2,3.1s4.1,3.2,6,5.5
	C388.6,741.7,390.8,747.7,390.8,754.5 M412.1,773.2c2.3-6,3.4-12.2,3.4-18.5c0-7.8-1.6-15.2-4.9-22.3s-7.8-13.1-13.7-18.1
	c-3.4-2.9-6.8-5.2-10.2-6.8c-3.4-1.7-6.7-3-9.8-3.9c-3.1-0.9-5.9-1.5-8.4-1.7s-4.6-0.4-6.1-0.4c-7.5,0-14.7,1.5-21.6,4.6
	S328,713.5,323,719c-4.3,4.9-7.7,10.4-10.1,16.5s-3.6,12.4-3.6,19.1c0,7,1.4,13.8,4.1,20.3c2.7,6.6,6.5,12.3,11.4,17.2
	s10.6,8.7,17.2,11.4s13.3,4.1,20.2,4.1c7.6,0,14.9-1.6,21.9-4.7c7-3.1,13.1-7.5,18-13.3C406.6,784.7,409.9,779.3,412.1,773.2"/>
<path class="st0" d="M1408.2,682V580.5h-25.6v55.9l-11.9-18.3c-4.3-6.5-8.6-12.8-12.9-18.9c-4.3-6.1-8.7-12.3-13.2-18.8H1322v101.5
	h25.5v-55.4l38.1,55.5H1408.2z M1289.7,631.1c0,2.2-0.2,4.2-0.7,6.1c-0.5,1.9-1.1,3.5-1.8,5c-0.7,1.4-1.5,2.7-2.2,3.7
	c-0.8,1-1.4,1.8-2,2.4c-0.6,0.6-1.4,1.3-2.5,2.2s-2.4,1.8-3.9,2.7s-3.2,1.6-5.2,2.2c-2,0.6-4.2,0.9-6.6,0.9c-3.3,0-6.4-0.6-9.6-1.9
	c-3.1-1.3-5.8-3.1-8.1-5.4c-1.6-1.6-2.9-3.3-4-5.1c-1-1.8-1.8-3.5-2.2-5c-0.5-1.6-0.8-3-0.9-4.4c-0.1-1.3-0.2-2.4-0.2-3.2
	c0-3.4,0.6-6.6,1.9-9.7c1.3-3.1,3.1-5.8,5.5-8.1c3.4-3.1,6.7-5,10.1-5.9s5.8-1.3,7.5-1.3c5.2,0,9.9,1.5,14.2,4.5
	c4.3,3,7.4,6.9,9.2,11.6C1289.2,625.2,1289.7,628.2,1289.7,631.1 M1311.8,655.1c1.7-3.4,2.9-6.6,3.8-9.6s1.4-5.8,1.7-8.3
	c0.2-2.5,0.4-4.5,0.4-6c0-7.8-1.6-15.2-4.9-22.3s-7.8-13.1-13.7-18.1c-1.1-1-2.8-2.2-4.9-3.6c-2.1-1.4-4.6-2.8-7.5-4.2
	c-2.9-1.3-6.2-2.5-9.9-3.5c-3.7-1-7.7-1.4-12-1.4c-7.6,0-14.9,1.6-22.1,4.9c-7.1,3.3-13.2,7.8-18.2,13.7c-2.9,3.4-5.2,6.7-6.8,10.1
	c-1.7,3.4-2.9,6.7-3.8,9.8s-1.4,5.9-1.7,8.4c-0.2,2.5-0.4,4.5-0.4,6c0,6.9,1.4,13.6,4.1,20.2c2.7,6.6,6.5,12.3,11.4,17.2
	s10.6,8.7,17.2,11.4s13.3,4.1,20.2,4.1c7.8,0,15.2-1.6,22.4-4.8c7.1-3.2,13.2-7.8,18-13.9C1307.9,661.8,1310.1,658.5,1311.8,655.1
	 M1183.1,628.9c0,1.2,0.1,2.1,0.1,2.8c0,0.6-0.1,2-0.2,4.2s-0.6,4.7-1.5,7.3c-0.9,2.7-2.2,5.3-4,7.9c-1.8,2.6-4.3,4.6-7.6,5.9
	c-1.8,0.8-3.6,1.2-5.2,1.4c-1.7,0.1-3.5,0.2-5.5,0.2h-14.5v-55.1h10.1c2.4,0,4.6,0.1,6.5,0.2c2,0.1,4,0.6,6.3,1.4
	c4.3,1.6,7.7,4.2,10.1,7.8c2.4,3.5,4,7.5,4.9,11.8C1182.8,626.3,1183,627.7,1183.1,628.9 M1203.3,656.6c1.7-3.6,3-7.1,3.8-10.4
	c0.8-3.3,1.3-6.3,1.5-9s0.3-4.9,0.3-6.6c0-3.2-0.2-5.8-0.5-7.8c-0.3-2.1-0.6-3.8-0.9-5.1c-0.9-3.8-2.2-7.6-3.9-11.3
	c-1.7-3.7-3.8-7.1-6.3-10.1c-2.4-3.1-5.3-5.8-8.6-8.1c-3.3-2.3-6.8-4.1-10.6-5.4c-2.1-0.7-4.2-1.1-6.3-1.4c-2.1-0.2-4-0.5-5.7-0.6
	c-1.8-0.2-3.4-0.3-4.7-0.2c-1.3,0-2.3,0.1-2.9,0.1h-40v101.5h38.8c4,0,7.8-0.1,11.4-0.4c3.5-0.3,7.2-1.1,11.1-2.6
	c4.5-1.7,8.1-3.8,10.6-6.1c2.6-2.3,4.5-4.2,5.6-5.5C1199.2,663.8,1201.6,660.2,1203.3,656.6 M1112.8,682V580.5h-25.6v55.9
	l-11.9-18.3c-4.3-6.5-8.6-12.8-12.9-18.9c-4.3-6.1-8.7-12.3-13.2-18.8h-22.6v101.5h25.5v-55.4l38.1,55.5H1112.8z M994.4,631.1
	c0,2.2-0.2,4.2-0.7,6.1c-0.5,1.9-1.1,3.5-1.8,5c-0.7,1.4-1.5,2.7-2.2,3.7c-0.8,1-1.4,1.8-2,2.4c-0.6,0.6-1.4,1.3-2.5,2.2
	s-2.4,1.8-3.9,2.7s-3.2,1.6-5.2,2.2c-2,0.6-4.2,0.9-6.6,0.9c-3.3,0-6.4-0.6-9.6-1.9c-3.1-1.3-5.8-3.1-8.1-5.4
	c-1.6-1.6-2.9-3.3-4-5.1c-1-1.8-1.8-3.5-2.2-5c-0.5-1.6-0.8-3-0.9-4.4c-0.1-1.3-0.2-2.4-0.2-3.2c0-3.4,0.6-6.6,1.9-9.7
	c1.3-3.1,3.1-5.8,5.5-8.1c3.4-3.1,6.7-5,10.1-5.9c3.4-0.9,5.8-1.3,7.5-1.3c5.2,0,9.9,1.5,14.2,4.5s7.4,6.9,9.2,11.6
	C993.8,625.2,994.4,628.2,994.4,631.1 M1016.4,655.1c1.7-3.4,2.9-6.6,3.8-9.6c0.9-3,1.4-5.8,1.7-8.3c0.2-2.5,0.4-4.5,0.4-6
	c0-7.8-1.6-15.2-4.9-22.3c-3.3-7.1-7.8-13.1-13.7-18.1c-1.1-1-2.8-2.2-4.9-3.6c-2.1-1.4-4.6-2.8-7.5-4.2c-2.9-1.3-6.2-2.5-9.9-3.5
	s-7.7-1.4-12-1.4c-7.6,0-14.9,1.6-22.1,4.9c-7.1,3.3-13.2,7.8-18.2,13.7c-2.9,3.4-5.2,6.7-6.8,10.1c-1.7,3.4-2.9,6.7-3.8,9.8
	c-0.9,3.1-1.4,5.9-1.7,8.4c-0.2,2.5-0.4,4.5-0.4,6c0,6.9,1.4,13.6,4.1,20.2c2.7,6.6,6.5,12.3,11.4,17.2s10.6,8.7,17.2,11.4
	c6.6,2.7,13.3,4.1,20.2,4.1c7.8,0,15.2-1.6,22.4-4.8c7.1-3.2,13.2-7.8,18-13.9C1012.5,661.8,1014.8,658.5,1016.4,655.1 M919.3,682
	v-23.9h-30.5v-77.6h-26.2V682H919.3z M828.9,669c0.4-2.4,0.6-5.2,0.6-8.1V635h-23.7v24h9.6c0.3,4-0.2,6.9-1.4,8.7s-4,2.6-8.2,2.5
	v11.9h4.2h2.6c2.5-0.2,4.8-0.7,7-1.6c2.2-0.9,4-2.3,5.7-4.2C827.3,673.9,828.5,671.4,828.9,669 M768.8,639.1
	c1.4,0.6,2.7,1.5,3.8,2.5c1.1,1.1,2,2.3,2.6,3.7s0.9,3,0.9,4.7c0,3.3-1.2,6.1-3.5,8.4c-2.3,2.3-5.1,3.5-8.5,3.5
	c-0.9,0-2.1-0.2-3.7-0.6c-1.6-0.4-3.1-1.3-4.7-2.9c-1.5-1.4-2.5-3.1-3-5c-0.2-0.4-0.3-0.9-0.4-1.4c0-0.6-0.2-1.2-0.4-2
	c0-1.6,0.3-3.2,0.9-4.6c0.6-1.4,1.5-2.7,2.6-3.8s2.4-2,3.8-2.6c1.4-0.6,3-0.9,4.7-0.9C765.8,638.2,767.3,638.5,768.8,639.1
	 M770.6,602.7c1.7,1.7,2.6,3.9,2.6,6.6c0,2.6-0.9,4.8-2.6,6.5c-1.7,1.8-3.9,2.7-6.6,2.7c-0.6,0-1.5-0.1-2.7-0.4
	c-1.2-0.2-2.5-1-3.8-2.4c-1.3-1.2-2.1-2.5-2.4-3.7c-0.2-1.2-0.4-2.1-0.4-2.7c0-2.6,0.9-4.8,2.6-6.6c1.7-1.8,3.9-2.7,6.6-2.7
	S768.9,600.9,770.6,602.7 M790.7,674.8c1.6-1.4,3.2-3.3,4.8-5.5s3-4.8,4.2-7.7s1.8-6.3,1.8-10c0-1-0.1-2.3-0.3-4s-0.6-3.5-1.3-5.5
	s-1.7-4.1-2.9-6.3s-3-4.1-5.2-5.8c-0.4-0.3-0.7-0.5-1-0.8c-0.3-0.2-0.6-0.5-0.9-0.6c-0.3-0.3-0.7-0.6-1.2-0.9s-1.5-0.8-2.8-1.6
	c1.3-1.1,2.3-1.9,3-2.4c0.7-0.6,1.2-1.2,1.7-1.9c1-1.1,2.1-2.9,3.4-5.7c1.3-2.7,1.9-6.1,1.9-10.1c0-4.4-1.1-8.5-3.4-12.3
	c-2.3-3.8-5.1-6.9-8.4-9.4c-1.9-1.3-3.8-2.4-5.8-3.2c-1.9-0.8-3.7-1.3-5.4-1.7c-1.7-0.3-3.2-0.6-4.5-0.6c-1.3-0.1-2.4-0.1-3.3-0.1
	c-4.6,0-8.6,0.6-12,1.8s-6.3,2.7-8.8,4.4c-2.4,1.7-4.4,3.6-5.9,5.6s-2.6,3.8-3.5,5.3c-0.6,1.1-1.2,2.5-1.9,4.5c-0.7,1.9-1,4.4-1,7.5
	s0.3,5.6,1,7.7c0.7,2.1,1.5,3.8,2.6,5.2c0.7,0.9,1.5,1.8,2.5,2.7s2.4,2,4.1,3.4l-3.6,2.3c-0.9,0.6-2,1.5-3.3,2.7s-2.6,2.8-3.9,4.7
	c-1.2,1.9-2.3,4.1-3.2,6.6s-1.4,5.4-1.4,8.7c0,3.5,0.5,6.7,1.7,9.8c1.1,3.1,2.6,6,4.6,8.6s4.3,4.9,6.9,6.9c2.7,2,5.6,3.5,8.8,4.7
	c3.3,1.1,6.2,1.8,8.9,2.1c2.7,0.2,4.7,0.4,6,0.4c5.8,0,10.7-0.7,14.5-2.2c3.8-1.4,6.6-2.8,8.6-4.2
	C787.8,677.3,789.1,676.3,790.7,674.8 M718.4,669.1c1.5-2.3,2.7-4.5,3.5-6.6s1.4-4.1,1.7-5.9c0.3-1.8,0.4-3.4,0.4-4.6
	c0-2.5-0.2-4.6-0.7-6.2c-0.5-1.6-0.9-2.8-1.1-3.6c-0.7-1.6-1.8-3.6-3.2-5.8c-1.5-2.3-4.1-4.3-7.7-6.3l-4.9-2.7c1.4-1,2.4-1.7,3-2.2
	s1.1-0.9,1.6-1.3c5.2-4.9,7.8-10.8,7.8-17.8c0-6-1.7-11.3-5.2-15.7c-3.5-4.5-7.9-7.7-13.4-9.7c-1-0.4-2.6-0.8-4.8-1.4
	s-4.8-0.8-7.7-0.8c-2.1,0-3.9,0.1-5.5,0.4c-1.5,0.2-2.7,0.5-3.5,0.6c-1.6,0.4-2.9,0.7-3.7,1c-0.9,0.3-1.7,0.6-2.4,0.9
	c-2,1-3.9,2.1-5.6,3.3c-1.6,1.3-2.7,2.3-3.2,2.7c-1.7,1.6-3.1,3.3-4.2,4.9c-1.1,1.6-2,3.3-2.6,5.1s-1.1,3.7-1.4,5.8
	c-0.3,2.1-0.6,4.3-0.9,6.8h24.9v-2.2c0.3-1.9,1.1-3.6,2.3-5.2c1.2-1.5,3-2.3,5.3-2.3c2.5,0,4.3,0.9,5.3,2.8c1.1,1.9,1.6,3.9,1.6,6.1
	c0,1.7-0.1,3.1-0.4,4.2s-0.6,2-1,2.7c-1.3,2.3-3,3.8-5.1,4.4c-2.1,0.6-4.3,0.9-6.8,0.9H677v19.4h6.8c1.8,0,3.5,0.1,5,0.3
	s3.1,0.8,4.7,1.9c1.9,1.3,3.1,2.9,3.5,4.6c0.4,1.7,0.6,3,0.6,3.9c0,2.8-0.9,5.2-2.6,7.3c-1.7,2.1-4.1,3.2-7.2,3.2
	c-2.1,0-4.1-0.6-5.8-1.7c-1.8-1.1-3-2.6-3.8-4.5c-0.1-0.4-0.2-0.7-0.2-0.9s-0.1-0.6-0.2-0.9c-0.1-0.3-0.1-0.6-0.1-1.1
	c0-0.4,0-0.9-0.1-1.5H652c0.2,1.4,0.3,2.7,0.4,3.7c0,1,0.2,1.9,0.4,2.7c0.2,1.1,0.4,2.1,0.6,3.2c0.2,1.1,0.6,2.1,0.9,3.2
	c1.3,3.5,3.2,6.6,5.5,9.1s5,4.6,8,6.2c3,1.6,6.2,2.8,9.6,3.5c3.5,0.8,6.9,1.1,10.5,1.1c4.7,0,9.1-0.6,13.1-1.9
	c4-1.2,7.9-3.4,11.5-6.5C714.9,673.6,716.9,671.4,718.4,669.1 M643.2,669.1c1.5-2.3,2.7-4.5,3.5-6.6s1.4-4.1,1.7-5.9
	c0.3-1.8,0.4-3.4,0.4-4.6c0-2.5-0.2-4.6-0.7-6.2c-0.5-1.6-0.9-2.8-1.2-3.6c-0.7-1.6-1.8-3.6-3.2-5.8c-1.5-2.3-4-4.3-7.7-6.3
	l-4.9-2.7c1.4-1,2.4-1.7,3-2.2s1.1-0.9,1.6-1.3c5.2-4.9,7.8-10.8,7.8-17.8c0-6-1.7-11.3-5.2-15.7c-3.5-4.5-7.9-7.7-13.4-9.7
	c-1-0.4-2.6-0.8-4.8-1.4c-2.3-0.5-4.8-0.8-7.7-0.8c-2.1,0-3.9,0.1-5.5,0.4c-1.5,0.2-2.7,0.5-3.4,0.6c-1.6,0.4-2.9,0.7-3.7,1
	s-1.7,0.6-2.4,0.9c-2,1-3.9,2.1-5.6,3.3c-1.6,1.3-2.7,2.3-3.2,2.7c-1.7,1.6-3.1,3.3-4.2,4.9c-1.1,1.6-2,3.3-2.6,5.1
	s-1.1,3.7-1.4,5.8c-0.3,2.1-0.6,4.3-0.9,6.8h24.9v-2.2c0.3-1.9,1.1-3.6,2.3-5.2s3-2.3,5.3-2.3c2.5,0,4.3,0.9,5.3,2.8
	c1.1,1.9,1.6,3.9,1.6,6.1c0,1.7-0.1,3.1-0.4,4.2c-0.3,1.1-0.6,2-1,2.7c-1.3,2.3-3,3.8-5.1,4.4c-2.1,0.6-4.3,0.9-6.8,0.9H602v19.4
	h6.8c1.8,0,3.5,0.1,5,0.3s3.1,0.8,4.7,1.9c1.9,1.3,3.1,2.9,3.5,4.6c0.4,1.7,0.6,3,0.6,3.9c0,2.8-0.9,5.2-2.6,7.3
	c-1.7,2.1-4.1,3.2-7.2,3.2c-2.1,0-4-0.6-5.8-1.7c-1.8-1.1-3-2.6-3.8-4.5c-0.1-0.4-0.2-0.7-0.2-0.9s-0.1-0.6-0.2-0.9
	c-0.1-0.3-0.1-0.6-0.1-1.1c0-0.4,0-0.9-0.1-1.5H577c0.2,1.4,0.3,2.7,0.4,3.7c0,1,0.2,1.9,0.4,2.7c0.2,1.1,0.4,2.1,0.6,3.2
	c0.2,1.1,0.6,2.1,0.9,3.2c1.3,3.5,3.2,6.6,5.5,9.1s5,4.6,8,6.2c3,1.6,6.2,2.8,9.6,3.5c3.4,0.8,6.9,1.1,10.5,1.1
	c4.7,0,9.1-0.6,13.1-1.9c4-1.2,7.9-3.4,11.5-6.5C639.7,673.6,641.7,671.4,643.2,669.1 M518.4,631.1c0,2.2-0.2,4.2-0.7,6.1
	c-0.5,1.9-1.1,3.5-1.8,5c-0.7,1.4-1.5,2.7-2.2,3.7c-0.8,1-1.4,1.8-2,2.4c-0.6,0.6-1.4,1.3-2.5,2.2s-2.4,1.8-3.9,2.7
	s-3.2,1.6-5.2,2.2c-2,0.6-4.2,0.9-6.6,0.9c-3.3,0-6.4-0.6-9.6-1.9c-3.1-1.3-5.8-3.1-8.1-5.4c-1.6-1.6-2.9-3.3-4-5.1
	c-1-1.8-1.8-3.5-2.2-5c-0.5-1.6-0.8-3-0.9-4.4c-0.1-1.3-0.2-2.4-0.2-3.2c0-3.4,0.6-6.6,1.9-9.7c1.3-3.1,3.1-5.8,5.5-8.1
	c3.4-3.1,6.7-5,10.1-5.9s5.8-1.3,7.5-1.3c5.2,0,9.9,1.5,14.2,4.5c4.3,3,7.4,6.9,9.2,11.6C517.9,625.2,518.4,628.2,518.4,631.1
	 M540.5,655.1c1.7-3.4,2.9-6.6,3.8-9.6c0.9-3,1.4-5.8,1.7-8.3c0.2-2.5,0.4-4.5,0.4-6c0-7.8-1.6-15.2-4.9-22.3
	c-3.3-7.1-7.8-13.1-13.7-18.1c-1.2-1-2.8-2.2-4.9-3.6c-2.1-1.4-4.6-2.8-7.5-4.2c-2.9-1.3-6.2-2.5-9.9-3.5c-3.7-1-7.7-1.4-12-1.4
	c-7.6,0-14.9,1.6-22.1,4.9c-7.1,3.3-13.2,7.8-18.2,13.7c-2.9,3.4-5.2,6.7-6.8,10.1c-1.7,3.4-2.9,6.7-3.8,9.8s-1.4,5.9-1.7,8.4
	c-0.2,2.5-0.4,4.5-0.4,6c0,6.9,1.4,13.6,4.1,20.2c2.7,6.6,6.5,12.3,11.4,17.2s10.6,8.7,17.2,11.4s13.3,4.1,20.2,4.1
	c7.8,0,15.2-1.6,22.4-4.8c7.1-3.2,13.2-7.8,18-13.9C536.6,661.8,538.8,658.5,540.5,655.1 M436.2,580.5h-25.9V682h25.9V580.5z
	 M380.2,628.9c0,1.2,0.1,2.1,0.1,2.8c0,0.6-0.1,2-0.2,4.2s-0.6,4.7-1.5,7.3c-0.9,2.7-2.2,5.3-4,7.9c-1.8,2.6-4.3,4.6-7.5,5.9
	c-1.8,0.8-3.6,1.2-5.2,1.4c-1.7,0.1-3.5,0.2-5.5,0.2h-14.5v-55.1H352c2.4,0,4.6,0.1,6.5,0.2c2,0.1,4,0.6,6.3,1.4
	c4.3,1.6,7.7,4.2,10.1,7.8c2.4,3.5,4,7.5,4.9,11.8C379.9,626.3,380.1,627.7,380.2,628.9 M400.4,656.6c1.7-3.6,3-7.1,3.8-10.4
	c0.8-3.3,1.3-6.3,1.5-9s0.3-4.9,0.3-6.6c0-3.2-0.2-5.8-0.5-7.8c-0.3-2.1-0.6-3.8-0.9-5.1c-0.9-3.8-2.2-7.6-3.9-11.3
	c-1.7-3.7-3.8-7.1-6.3-10.1c-2.4-3.1-5.3-5.8-8.6-8.1c-3.3-2.3-6.8-4.1-10.6-5.4c-2.1-0.7-4.2-1.1-6.3-1.4c-2.1-0.2-4-0.5-5.7-0.6
	c-1.8-0.2-3.4-0.3-4.7-0.2c-1.3,0-2.3,0.1-2.9,0.1h-40v101.5h38.8c4,0,7.8-0.1,11.4-0.4c3.5-0.3,7.2-1.1,11.1-2.6
	c4.5-1.7,8.1-3.8,10.6-6.1c2.6-2.3,4.5-4.2,5.6-5.5C396.3,663.8,398.7,660.2,400.4,656.6 M309.8,647.4c0.1-3.2,0.1-6.3,0.1-9.3
	v-57.6H284v63.8v3.3c0,3.4-1.2,6.1-3.6,8.3s-5.3,3.2-8.8,3.2h-1.2c-0.5,0-1.1,0-1.7-0.1c-0.7-0.1-1.3-0.3-2-0.6s-1.3-0.6-2-1
	c-2.2-1.6-3.6-3.5-4.2-5.6s-0.9-4.4-0.9-6.9v-64.4h-25.9v61.3c0,2.5,0,4.7,0.1,6.5s0.2,3.4,0.4,4.8c0.1,1.4,0.3,2.7,0.6,3.9
	c0.2,1.2,0.5,2.4,0.9,3.5c0.7,2.4,1.8,5,3.4,7.7c1.6,2.7,3.8,5.3,6.6,7.6c2.8,2.4,6.3,4.3,10.4,5.9c4.1,1.6,9.2,2.4,15.1,2.4
	c6.2,0,11.2-0.8,14.8-2.3c3.6-1.5,6.6-3.1,8.8-4.7c2.6-1.8,4.7-3.7,6.3-5.7c1.6-2,2.9-3.9,4-5.7c1-1.8,1.7-3.5,2.2-5.1
	s0.9-2.9,1.1-4C309.3,653.7,309.7,650.7,309.8,647.4 M228,603.5v-23h-65.9v22.9H182V682h25.7v-78.5H228z M153.9,669.9
	c1.8-2.5,3.1-4.9,4-7.3c0.9-2.3,1.5-4.6,1.7-6.7c0.2-2.1,0.4-3.9,0.4-5.5s-0.2-3.9-0.6-6.7c-0.4-2.8-1.9-5.9-4.4-9.3
	c-0.9-1.2-1.7-2.3-2.6-3c-0.6-0.7-1.2-1.3-2-1.9c-1.3-1.2-3.4-2.7-6-4.2c-2.7-1.6-6.2-3.4-10.6-5.4c-1.8-0.8-3.4-1.4-4.7-2
	s-2.5-1.1-3.7-1.7c-2-1.1-3.6-2.4-4.7-3.9c-0.3-0.4-0.6-0.9-0.9-1.7c-0.3-0.7-0.5-1.6-0.5-2.7c0-2.5,0.7-4.5,2.2-5.9
	c1.4-1.4,3.4-2.2,5.8-2.2c1.8,0,3.5,0.5,4.9,1.4c1.4,1,2.4,2.3,2.9,4c0.2,0.5,0.3,1,0.4,1.6c0,0.6,0.1,1.5,0.1,2.9h24
	c-0.2-1.3-0.3-2.5-0.2-3.4c0-0.9,0-1.9-0.2-2.9c-0.2-0.5-0.3-1-0.4-1.5c0-0.5-0.2-1-0.4-1.5c-0.1-0.5-0.2-1-0.4-1.4
	c-0.2-0.5-0.4-1-0.6-1.6c-0.5-1.2-1.2-2.6-2.2-4.2c-1-1.7-2.2-3.4-3.7-5.1c-1.5-1.7-3.4-3.4-5.6-4.9c-2.3-1.5-4.9-2.8-8-3.9
	c-2.5-0.9-4.7-1.4-6.7-1.5s-3.5-0.2-4.7-0.2s-2.7,0.1-4.5,0.3c-1.9,0.2-4,0.6-6.3,1.3s-4.7,1.7-7.2,2.9c-2.5,1.3-4.9,3-7.2,5.2
	c-2.1,2-3.8,4-5,6s-2.1,4-2.7,5.8c-0.6,1.9-1,3.6-1.1,5.2c-0.1,1.6-0.2,2.9-0.2,4.1c0,4,0.6,7.5,1.9,10.6c1.3,3,2.8,5.6,4.5,7.8
	s3.5,3.9,5.4,5.2s3.4,2.3,4.5,2.9c1.8,1,3.6,1.8,5.4,2.7c1.8,0.8,3.6,1.6,5.5,2.4l4.7,1.9c2.4,1.2,4.5,2.7,6.4,4.2
	c1.9,1.6,2.8,3.9,2.8,7c0,2.5-0.8,4.6-2.4,6.2c-1.6,1.6-3.7,2.4-6.3,2.4c-1.2,0-2.3-0.1-3-0.4c-0.8-0.3-1.4-0.6-1.9-0.9
	c-2.2-1.2-3.5-2.9-4-5.1c-0.4-2.2-0.6-4.5-0.6-7H90.4c0.1,3.2,0.3,6,0.6,8.5c0.3,2.5,0.9,5,1.7,7.5c0.7,1.9,1.8,4,3.3,6.3
	s3.6,4.4,6.1,6.3c2.5,2,5.7,3.6,9.3,5c3.7,1.3,8.1,2,13.2,2c1.2,0,2.5,0,4.1-0.1c1.6-0.1,3.3-0.4,5.2-0.8c1.9-0.4,3.9-1.1,6-2
	c2.2-0.9,4.4-2.2,6.7-4C149.7,674.8,152.1,672.4,153.9,669.9"/>
</svg>
