<svg id="Layer_1" data-name="Layer 1" xmlns="http://www.w3.org/2000/svg" viewBox="0 0 1500 1000"><defs><style>.cls-1{fill:#6df295;}.cls-2,.cls-3{fill:#fff;}.cls-2{fill-rule:evenodd;}</style></defs><title>D3F3CT8D_16.02.19</title><path class="cls-1" d="M480,663V570.14H466.8V548.19h41.95V663Z"/><path class="cls-1" d="M555.09,665.59c-1.19,0-2.65-.08-4.39-.25a46.09,46.09,0,0,1-5.85-1,41.22,41.22,0,0,1-6.91-2.28A36.75,36.75,0,0,1,530.7,658a69.26,69.26,0,0,1-5.69-4.8,39.91,39.91,0,0,1-6.18-7.48A43.63,43.63,0,0,1,514,635.1,46.15,46.15,0,0,1,512,621a47.89,47.89,0,0,1,.9-9.6,52.35,52.35,0,0,1,2.44-8.45,54.61,54.61,0,0,1,3.74-7.89q2.19-3.83,4.95-8.05l24.56-38.86h35.77l-26.5,35a81.41,81.41,0,0,1,8.37.08,29,29,0,0,1,5.94,1.06,32.51,32.51,0,0,1,10.89,5.61,37.68,37.68,0,0,1,8.29,9,42.26,42.26,0,0,1,5.21,11.3,43.53,43.53,0,0,1,1.78,12.28,40.54,40.54,0,0,1-3.49,16.75,45.33,45.33,0,0,1-9.35,13.65,43.59,43.59,0,0,1-13.74,9.27A41.45,41.45,0,0,1,555.09,665.59Zm0-58.21a14.26,14.26,0,0,0-10.73,4.39,14.87,14.87,0,0,0-4.23,10.73,23.79,23.79,0,0,0,.65,4.47,11.56,11.56,0,0,0,3.91,5.93,21.5,21.5,0,0,0,3.73,2.77,12.81,12.81,0,0,0,6.83,1.63,15.26,15.26,0,0,0,5.86-1.14,14.35,14.35,0,0,0,8-8,15.35,15.35,0,0,0,1.13-5.85,14.72,14.72,0,0,0-4.47-10.74,15.35,15.35,0,0,0-10.65-4.22Z"/><path class="cls-1" d="M601.59,663V635.83h26.83V663Z"/><path class="cls-1" d="M736.88,645.26a57.25,57.25,0,0,1-20.41,15,60.75,60.75,0,0,1-24.8,5.29A60.73,60.73,0,0,1,649.4,648a60.61,60.61,0,0,1-17.56-42.44A58.34,58.34,0,0,1,635.9,584a62.42,62.42,0,0,1,11.38-18.61,60.11,60.11,0,0,1,44.56-19.84q2.6,0,6.91.41a50.3,50.3,0,0,1,9.51,2,72.5,72.5,0,0,1,11,4.39,54.51,54.51,0,0,1,11.55,7.72,59,59,0,0,1,15.45,20.49,59.94,59.94,0,0,1,1.7,46.18A58.9,58.9,0,0,1,736.88,645.26Zm-20.33-60a30.14,30.14,0,0,0-6.83-6.18,35,35,0,0,0-7-3.49,28.71,28.71,0,0,0-6.34-1.55c-1.95-.21-3.47-.32-4.55-.32a32.07,32.07,0,0,0-32,32c0,1,.09,2.33.25,4.07a26.22,26.22,0,0,0,1.22,5.61,38.51,38.51,0,0,0,2.84,6.42,29.41,29.41,0,0,0,5.12,6.66,32.73,32.73,0,0,0,10.57,6.92,32,32,0,0,0,12,2.35,34.64,34.64,0,0,0,3.65-.24,33.72,33.72,0,0,0,5-1,30.14,30.14,0,0,0,5.86-2.27,31,31,0,0,0,6-4,26.45,26.45,0,0,0,6.18-6.74,36.8,36.8,0,0,0,3.5-7.08,28.59,28.59,0,0,0,1.54-6.26,41.8,41.8,0,0,0,.33-4.63A30.82,30.82,0,0,0,716.55,585.26Z"/><path class="cls-1" d="M756.22,663V641.52q5.87-5.35,11.22-10.32t10.57-10l9.27-9q4.71-4.54,8.05-8.37a68.35,68.35,0,0,0,5.53-7.15,27.75,27.75,0,0,0,3.25-6.59,21.56,21.56,0,0,0,1-6.66,14.33,14.33,0,0,0-.08-1.71,9.43,9.43,0,0,0-.24-1.38,6.79,6.79,0,0,1-.24-.9c-.06-.27-.14-.62-.25-1.06a11.13,11.13,0,0,0-3.66-5,9.42,9.42,0,0,0-5.93-1.95,8.73,8.73,0,0,0-5.2,1.63,11.11,11.11,0,0,0-4.39,5.77,27.06,27.06,0,0,0-1.31,7.24,13.25,13.25,0,0,0-.16,2v2.52l-28.62-.16v-4.88a26,26,0,0,1,.25-3.42c.16-1.19.35-2.43.57-3.74a50.93,50.93,0,0,1,2.52-8.45,32.48,32.48,0,0,1,5.12-8.62,49.91,49.91,0,0,1,4.8-5.12,33.63,33.63,0,0,1,7-5,43.18,43.18,0,0,1,9.59-3.74,49.36,49.36,0,0,1,12.77-1.46c1,0,2.3,0,4,.16a51.33,51.33,0,0,1,5.69.73,41.88,41.88,0,0,1,6.75,1.87,41.3,41.3,0,0,1,7.31,3.58c1.2,1,2.63,2.22,4.32,3.74a31.75,31.75,0,0,1,4.87,5.77,35.79,35.79,0,0,1,4,8.13,32.21,32.21,0,0,1,1.62,10.65V583a11.34,11.34,0,0,1-.08,1.3c-.06.43-.14.92-.24,1.46-.22,1.2-.44,2.41-.65,3.66a21.46,21.46,0,0,1-1.14,4,42.67,42.67,0,0,1-3.82,7.65q-2.35,3.74-5.12,7.31t-5.78,6.91q-3,3.35-5.93,6.43l-14,14.47h37.88V663Z"/><path class="cls-1" d="M842.24,663V635.83h26.83V663Z"/><path class="cls-1" d="M885.65,663V570.14H872.48V548.19h41.95V663Z"/><path class="cls-1" d="M991.83,624.45,966.46,663H930.85l27-34.8a63.64,63.64,0,0,1-7.73.16,27.28,27.28,0,0,1-6.42-1.14,28.64,28.64,0,0,1-11-5.52,40.09,40.09,0,0,1-8.22-9.11,42.24,42.24,0,0,1-5.2-11.3,44.08,44.08,0,0,1-1.79-12.44,40.39,40.39,0,0,1,3.5-16.75,45.5,45.5,0,0,1,9.35-13.66,43.12,43.12,0,0,1,30.4-12.52A61.9,61.9,0,0,1,971,547.13q6.66,1.23,14.14,6.43a67.27,67.27,0,0,1,5.69,4.79,39.91,39.91,0,0,1,6.18,7.48,43.61,43.61,0,0,1,4.88,10.57,46.26,46.26,0,0,1,2,14.07,52.94,52.94,0,0,1-.81,9.59,44.37,44.37,0,0,1-2.44,8.45,66.07,66.07,0,0,1-3.82,8Q994.59,620.38,991.83,624.45ZM971.18,578.6a22.62,22.62,0,0,0-3.74-2.77,12.79,12.79,0,0,0-6.83-1.62,14.2,14.2,0,0,0-5.85,1.22,15.36,15.36,0,0,0-4.8,3.25,15,15,0,0,0,.16,21.22,15.4,15.4,0,0,0,10.65,4.22,14.25,14.25,0,0,0,10.73-4.38A14.91,14.91,0,0,0,975.73,589a23.9,23.9,0,0,0-.65-4.47A11.51,11.51,0,0,0,971.18,578.6Z"/><path class="cls-2" d="M412.07,428.1c0,50-41,90.62-91,90.62h-2.38V471.45h4.21c23.21,0,42-19.33,42-43.4s-18.82-43.44-42-43.58l-4.21,0v-47h2.77A90.63,90.63,0,0,1,412.07,428.1Z"/><polygon class="cls-3" points="121.74 333.92 309.65 333.92 309.65 521.83 121.74 521.83 121.74 333.92 121.74 333.92"/><path class="cls-3" d="M641.42,381.25H585.49v27.48h55.69v40.12H585.49v65.41H542V342.59h99.46Z"/><path class="cls-3" d="M897.57,406.79a58.83,58.83,0,0,0-4.13-6.57,42.53,42.53,0,0,0-34.54-17,43.54,43.54,0,0,0-18.47,3.9c-16.79,7.05-27,23.34-27,41.34a46.51,46.51,0,0,0,3.4,16.77c3.41,8,15.57,28,42.07,28a44.83,44.83,0,0,0,14.83-2.42c2.68-1,12.16-5.35,18.73-13.13a75.29,75.29,0,0,0,5.35-8h47.66c-3.65,11.19-5.83,16.05-8.51,21.16A89.13,89.13,0,0,1,880.78,515a88,88,0,0,1-21.39,2.44c-43.53,0-66.63-26.75-75.38-39.4-5.59-8-14.83-23.82-14.83-48.39,0-46.69,30.63-70.76,44.49-79a89.28,89.28,0,0,1,44.75-11.67,88.24,88.24,0,0,1,56.66,20.42c21.15,17.28,27.23,37.46,30.15,47.43Z"/><path class="cls-3" d="M1051.57,381.25h-34.29v133H973.76V381H940.2V342.59h111.37Z"/><path class="cls-2" d="M1284.25,428.11c0-26.08-20.38-45-45.53-45.14l-10.16-.09v90.49h10.16C1263.87,473.36,1284.25,454.19,1284.25,428.11Zm46.09.33c0,47.39-38.8,85.8-86.18,85.8l-60.84,0V342.64l61.21,0A85.81,85.81,0,0,1,1330.34,428.44Z"/><path class="cls-3" d="M1310.67,346.53v-4.12h15.83v4.15h-5.43v14.62h-5V346.53Z"/><path class="cls-3" d="M1344.28,348.07h0l-3.6,13.11h-4l-3.59-13.11h0l-.19-.81h0c0,.34,0,13.92,0,13.92h-4.42V342.41h6.89l2.91,11a13.56,13.56,0,0,1,.4,2.87c0,.31,0,.63,0,.91a16.43,16.43,0,0,1,.11-2,14.28,14.28,0,0,1,.31-1.8l2.92-11h6.88v18.77h-4.64Z"/><path class="cls-3" d="M515.57,503.93a55.82,55.82,0,0,1-19.51,11,74.85,74.85,0,0,1-22.19,3.17,81.94,81.94,0,0,1-17.81-2,64,64,0,0,1-16.34-6,50.74,50.74,0,0,1-13.53-10.48,46.81,46.81,0,0,1-9.39-15.49,45.32,45.32,0,0,1-1.59-5.36c-.4-1.79-.77-3.58-1.09-5.37a22.78,22.78,0,0,1-.61-4.51q-.13-2.56-.61-6.22h43.41a16.14,16.14,0,0,1,.24,2.56,6,6,0,0,0,.24,1.83c.16.65.29,1.18.37,1.58s.2.94.37,1.59A15.69,15.69,0,0,0,464,478a18.34,18.34,0,0,0,9.88,2.81q7.8,0,12.19-5.37A19,19,0,0,0,490.45,463a33.53,33.53,0,0,0-1-6.58q-1-4.39-5.85-7.81a19.56,19.56,0,0,0-8.05-3.17,70.18,70.18,0,0,0-8.53-.48H455.57V412h6.1a39.86,39.86,0,0,0,11.59-1.58q5.24-1.59,8.65-7.44a18.89,18.89,0,0,0,1.71-4.51,29.16,29.16,0,0,0,.73-7.2,20.73,20.73,0,0,0-2.68-10.36q-2.69-4.75-9-4.76-5.86,0-9,3.91a17.92,17.92,0,0,0-3.9,8.78v3.65H417.53c.49-4.22,1-8.08,1.59-11.58a56.85,56.85,0,0,1,2.43-9.76,37.9,37.9,0,0,1,4.39-8.65,50.3,50.3,0,0,1,7.2-8.3q1.22-1.21,5.36-4.63A61.94,61.94,0,0,1,448,344c1.3-.49,2.69-1,4.15-1.46s3.57-1.06,6.34-1.71q2-.48,5.85-1.1a61.79,61.79,0,0,1,9.27-.61,57.15,57.15,0,0,1,13.05,1.35,65.21,65.21,0,0,1,8.17,2.31,49.84,49.84,0,0,1,22.68,16.46,42.39,42.39,0,0,1,8.78,26.71,40,40,0,0,1-13.17,30.24c-.82.65-1.71,1.38-2.68,2.19s-2.69,2-5.12,3.66l8.29,4.64q9.25,4.88,13,10.6a61.45,61.45,0,0,1,5.49,9.88c.49,1.3,1.14,3.34,2,6.1a38,38,0,0,1,1.22,10.49,51.17,51.17,0,0,1-.73,7.8,49.59,49.59,0,0,1-2.8,10,59.06,59.06,0,0,1-6,11.22A54.34,54.34,0,0,1,515.57,503.93Z"/><path class="cls-3" d="M746.58,503.93a55.82,55.82,0,0,1-19.51,11,74.85,74.85,0,0,1-22.19,3.17,81.94,81.94,0,0,1-17.81-2,64,64,0,0,1-16.34-6,50.74,50.74,0,0,1-13.53-10.48,46.81,46.81,0,0,1-9.39-15.49,43.45,43.45,0,0,1-1.58-5.36q-.62-2.69-1.1-5.37a22.78,22.78,0,0,1-.61-4.51q-.13-2.56-.61-6.22h43.41a16.14,16.14,0,0,1,.24,2.56,5.65,5.65,0,0,0,.25,1.83c.16.65.28,1.18.36,1.58s.2.94.37,1.59A15.69,15.69,0,0,0,695,478a18.36,18.36,0,0,0,9.88,2.81q7.8,0,12.19-5.37A19,19,0,0,0,721.46,463a33.53,33.53,0,0,0-1-6.58q-1-4.39-5.85-7.81a19.56,19.56,0,0,0-8-3.17,70.18,70.18,0,0,0-8.53-.48H686.59V412h6.09a39.86,39.86,0,0,0,11.59-1.58q5.24-1.59,8.65-7.44a18.89,18.89,0,0,0,1.71-4.51,29.16,29.16,0,0,0,.73-7.2,20.73,20.73,0,0,0-2.68-10.36q-2.68-4.75-9-4.76-5.85,0-9,3.91a17.92,17.92,0,0,0-3.9,8.78v3.65H648.54c.49-4.22,1-8.08,1.59-11.58a55.94,55.94,0,0,1,2.44-9.76,37.11,37.11,0,0,1,4.39-8.65,49.74,49.74,0,0,1,7.19-8.3q1.22-1.21,5.36-4.63A61.57,61.57,0,0,1,679,344c1.3-.49,2.68-1,4.14-1.46s3.58-1.06,6.34-1.71q1.95-.48,5.86-1.1a61.55,61.55,0,0,1,9.26-.61,57.15,57.15,0,0,1,13,1.35,65.21,65.21,0,0,1,8.17,2.31,49.84,49.84,0,0,1,22.68,16.46,42.39,42.39,0,0,1,8.78,26.71,40,40,0,0,1-13.17,30.24c-.82.65-1.71,1.38-2.68,2.19s-2.68,2-5.12,3.66l8.29,4.64q9.25,4.88,13,10.6a61.29,61.29,0,0,1,5.48,9.88c.49,1.3,1.14,3.34,2,6.1a37.6,37.6,0,0,1,1.22,10.49,51.17,51.17,0,0,1-.73,7.8,49.59,49.59,0,0,1-2.8,10,59.06,59.06,0,0,1-6,11.22A54.34,54.34,0,0,1,746.58,503.93Z"/><path class="cls-3" d="M1150.15,507.84q-4.89,3.42-14.51,7.07t-24.51,3.66c-2.28,0-5.69-.21-10.24-.61a62.77,62.77,0,0,1-15.12-3.54,58.55,58.55,0,0,1-14.85-7.93,55.49,55.49,0,0,1-19.56-26.33,49.72,49.72,0,0,1-2.8-16.71,43.71,43.71,0,0,1,2.31-14.75,51.87,51.87,0,0,1,5.48-11.22,45,45,0,0,1,6.56-7.93,47,47,0,0,1,5.58-4.63l6.06-3.9q-4.36-3.42-6.91-5.73a36.29,36.29,0,0,1-4.25-4.52,31.43,31.43,0,0,1-4.36-8.9,42.92,42.92,0,0,1-1.69-13,39.49,39.49,0,0,1,1.69-12.69,53.21,53.21,0,0,1,3.15-7.56,91.29,91.29,0,0,1,5.94-9,43.16,43.16,0,0,1,10-9.51,60.57,60.57,0,0,1,14.87-7.44,61.4,61.4,0,0,1,20.36-3.05c1.47,0,3.33.09,5.61.25a63,63,0,0,1,7.68,1.09,53.49,53.49,0,0,1,9.15,2.81,49,49,0,0,1,9.76,5.36,54.25,54.25,0,0,1,14.26,16,40.06,40.06,0,0,1,5.73,20.85q0,10.25-3.29,17.19c-2.19,4.64-4.11,7.85-5.73,9.63a18.19,18.19,0,0,1-2.93,3.18c-1.14,1-2.84,2.35-5.12,4.14,2.28,1.3,3.86,2.2,4.76,2.68a9.24,9.24,0,0,1,2.07,1.47,17.83,17.83,0,0,1,1.46,1.09q.74.62,1.71,1.35a36,36,0,0,1,8.9,9.87,53.86,53.86,0,0,1,5,10.61,47.2,47.2,0,0,1,2.2,9.39,63.79,63.79,0,0,1,.48,6.71,44.43,44.43,0,0,1-3,17,63.49,63.49,0,0,1-7.08,13,54.51,54.51,0,0,1-8.17,9.27A82.11,82.11,0,0,1,1150.15,507.84Zm-38.43-67.56a20,20,0,0,0-8,1.59,20.84,20.84,0,0,0-10.85,10.85,19.36,19.36,0,0,0-1.59,7.8,21.28,21.28,0,0,1,.61,3.42,6.81,6.81,0,0,0,.61,2.44,17.3,17.3,0,0,0,5.12,8.53,17.11,17.11,0,0,0,7.93,4.88,28.61,28.61,0,0,0,6.22,1,19.34,19.34,0,0,0,14.39-6,19.68,19.68,0,0,0,5.85-14.27,20.13,20.13,0,0,0-1.58-8,19.48,19.48,0,0,0-4.39-6.34,21.87,21.87,0,0,0-6.47-4.27A19.36,19.36,0,0,0,1111.72,440.28Zm-.24-64.62a14.75,14.75,0,0,0-11.22,4.63,15.71,15.71,0,0,0-4.39,11.22,25.32,25.32,0,0,0,.61,4.51c.4,2,1.74,4.11,4,6.22q3.42,3.42,6.46,4a25.4,25.4,0,0,0,4.52.61,14.94,14.94,0,0,0,11.21-4.51,15.55,15.55,0,0,0-11.21-26.7Z"/></svg>
