<?xml version="1.0" encoding="utf-8"?>
<!-- Generator: Adobe Illustrator 22.0.1, SVG Export Plug-In . SVG Version: 6.00 Build 0)  -->
<svg version="1.1" id="Layer_1" xmlns="http://www.w3.org/2000/svg" xmlns:xlink="http://www.w3.org/1999/xlink" x="0px" y="0px"
	 viewBox="0 0 1557 933.8" style="enable-background:new 0 0 1557 933.8;" xml:space="preserve">
<style type="text/css">
	.st0{opacity:0.5;}
	.st1{clip-path:url(#SVGID_2_);fill:#FFFFFF;}
	.st2{fill:#FFFFFF;}
	.st3{clip-path:url(#SVGID_4_);fill:#FFFFFF;}
	.st4{clip-path:url(#SVGID_6_);fill:#FFFFFF;}
	.st5{clip-path:url(#SVGID_8_);fill:#FFFFFF;}
	.st6{clip-path:url(#SVGID_10_);fill:#FFFFFF;}
	.st7{clip-path:url(#SVGID_12_);fill:#FFFFFF;}
	.st8{clip-path:url(#SVGID_14_);fill:#FFFFFF;}
</style>
<g class="st0">
	<g>
		<g>
			<defs>
				<rect id="SVGID_1_" x="28.5" y="74" width="1500" height="783.1"/>
			</defs>
			<clipPath id="SVGID_2_">
				<use xlink:href="#SVGID_1_"  style="overflow:visible;"/>
			</clipPath>
			<path class="st1" d="M1361.7,542.8V325.7H1307v119.6l-25.5-39c-9.2-13.9-18.4-27.4-27.7-40.4c-9.2-13-18.7-26.4-28.3-40.1h-48.3
				v217.1h54.4V424.1l81.5,118.7H1361.7z M1108.4,433.9c0,4.7-0.5,9.1-1.5,13.1s-2.3,7.5-3.8,10.6s-3.1,5.7-4.8,7.8
				c-1.6,2.2-3.1,3.8-4.3,5.1c-1.2,1.2-3,2.8-5.4,4.8c-2.4,1.9-5.1,3.8-8.3,5.7c-3.2,1.8-6.9,3.4-11.2,4.6c-4.3,1.2-9,1.8-14.1,1.8
				c-7,0-13.8-1.4-20.4-4.2c-6.7-2.8-12.5-6.6-17.4-11.5c-3.5-3.5-6.3-7.1-8.5-10.9s-3.7-7.4-4.8-10.8c-1-3.4-1.7-6.5-2-9.4
				s-0.5-5.1-0.5-6.8c0-7.2,1.4-14.1,4.2-20.8c2.8-6.7,6.7-12.5,11.8-17.4c7.2-6.6,14.3-10.8,21.5-12.6c7.2-1.8,12.5-2.8,16-2.8
				c11.1,0,21.2,3.2,30.4,9.5c9.2,6.4,15.8,14.7,19.7,24.9C1107.3,421.2,1108.4,427.6,1108.4,433.9 M1155.6,485.1
				c3.6-7.3,6.3-14.1,8.1-20.6c1.8-6.5,3-12.3,3.5-17.7c0.5-5.3,0.8-9.6,0.8-12.9c0-16.6-3.5-32.5-10.5-47.7s-16.7-28.1-29.2-38.7
				c-2.5-2-5.9-4.6-10.5-7.7c-4.5-3.1-9.9-6-16.1-8.9c-6.3-2.9-13.3-5.3-21.2-7.4c-7.9-2-16.4-3.1-25.7-3.1
				c-16.2,0-31.9,3.5-47.2,10.5s-28.2,16.7-38.9,29.2c-6.1,7.2-11,14.4-14.6,21.7c-3.6,7.3-6.3,14.2-8.1,20.9
				c-1.8,6.7-3,12.7-3.5,18s-0.8,9.6-0.8,12.9c0,14.8,2.9,29.2,8.8,43.2c5.8,14,14,26.3,24.4,36.7c10.5,10.5,22.7,18.6,36.7,24.4
				c14,5.8,28.4,8.8,43.2,8.8c16.6,0,32.5-3.4,47.8-10.3c15.3-6.9,28.1-16.8,38.6-29.7C1147.2,499.6,1152,492.4,1155.6,485.1
				 M880.4,429.2c0.1,2.6,0.2,4.6,0.2,6c0,1.2-0.2,4.2-0.5,8.9c-0.3,4.7-1.4,9.9-3.2,15.7c-1.8,5.7-4.7,11.4-8.5,16.9
				s-9.2,9.7-16.1,12.6c-3.9,1.6-7.6,2.6-11.2,2.9c-3.6,0.3-7.5,0.5-11.8,0.5h-31.1V374.9h21.5c5.1,0,9.8,0.2,14,0.5
				s8.7,1.3,13.4,2.9c9.2,3.5,16.4,9,21.5,16.6s8.6,16,10.5,25.2C879.9,423.6,880.3,426.6,880.4,429.2 M923.6,488.4
				c3.7-7.8,6.4-15.2,8.1-22.3c1.7-7.1,2.8-13.5,3.2-19.2s0.6-10.5,0.6-14.1c0-6.8-0.4-12.3-1.1-16.8c-0.7-4.4-1.4-8-2-10.9
				c-1.8-8.2-4.6-16.2-8.3-24.1s-8.1-15.1-13.4-21.7c-5.2-6.6-11.3-12.3-18.3-17.4c-7-5-14.6-8.9-22.7-11.5c-4.5-1.4-9-2.4-13.4-2.9
				s-8.5-1-12.1-1.4c-3.9-0.4-7.2-0.6-10-0.5s-4.9,0.2-6.3,0.2h-85.4v217.1h83c8.6,0,16.7-0.3,24.3-0.9c7.6-0.6,15.5-2.5,23.7-5.5
				c9.6-3.7,17.2-8,22.8-13.1c5.5-5,9.5-9,12-11.8C914.8,503.8,919.9,496.2,923.6,488.4 M730.2,542.8V325.7h-54.7v119.6l-25.5-39
				c-9.2-13.9-18.4-27.4-27.7-40.4c-9.2-13-18.7-26.4-28.3-40.1h-48.3v217.1h54.4V424.1l81.5,118.7H730.2z M476.9,433.9
				c0,4.7-0.5,9.1-1.5,13.1s-2.3,7.5-3.8,10.6s-3.1,5.7-4.8,7.8c-1.6,2.2-3.1,3.8-4.3,5.1c-1.2,1.2-3,2.8-5.4,4.8
				c-2.4,1.9-5.1,3.8-8.3,5.7c-3.2,1.8-6.9,3.4-11.2,4.6c-4.3,1.2-9,1.8-14.1,1.8c-7,0-13.8-1.4-20.4-4.2
				c-6.7-2.8-12.5-6.6-17.4-11.5c-3.5-3.5-6.3-7.1-8.5-10.9s-3.7-7.4-4.8-10.8c-1-3.4-1.7-6.5-2-9.4s-0.5-5.1-0.5-6.8
				c0-7.2,1.4-14.1,4.2-20.8c2.8-6.7,6.7-12.5,11.8-17.4c7.2-6.6,14.3-10.8,21.5-12.6c7.2-1.8,12.5-2.8,16-2.8
				c11.1,0,21.2,3.2,30.4,9.5c9.2,6.4,15.8,14.7,19.7,24.9C475.8,421.2,476.9,427.6,476.9,433.9 M524.1,485.1
				c3.6-7.3,6.3-14.1,8.1-20.6c1.8-6.5,3-12.3,3.5-17.7c0.5-5.3,0.8-9.6,0.8-12.9c0-16.6-3.5-32.5-10.5-47.7s-16.7-28.1-29.2-38.7
				c-2.5-2-5.9-4.6-10.5-7.7c-4.5-3.1-9.9-6-16.1-8.9c-6.3-2.9-13.3-5.3-21.2-7.4c-7.9-2-16.4-3.1-25.7-3.1
				c-16.2,0-31.9,3.5-47.2,10.5c-15.3,7-28.2,16.7-38.9,29.2c-6.1,7.2-11,14.4-14.6,21.7c-3.6,7.3-6.3,14.2-8.1,20.9
				c-1.8,6.7-3,12.7-3.5,18s-0.8,9.6-0.8,12.9c0,14.8,2.9,29.2,8.8,43.2c5.8,14,14,26.3,24.4,36.7c10.5,10.5,22.7,18.6,36.7,24.4
				s28.4,8.8,43.2,8.8c16.6,0,32.5-3.4,47.8-10.3c15.3-6.9,28.1-16.8,38.6-29.7C515.7,499.6,520.5,492.4,524.1,485.1 M316.4,542.8
				v-51h-65.2v-166h-56v217.1L316.4,542.8L316.4,542.8z"/>
		</g>
	</g>
	<rect x="28.5" y="74" class="st2" width="237.6" height="237.6"/>
	<g>
		<g>
			<defs>
				<rect id="SVGID_3_" x="28.5" y="74" width="1500" height="783.1"/>
			</defs>
			<clipPath id="SVGID_4_">
				<use xlink:href="#SVGID_3_"  style="overflow:visible;"/>
			</clipPath>
			<path class="st3" d="M395.6,193.1c0,63.3-51.8,114.6-115.1,114.6h-3v-59.8h5.3c29.3,0,53.1-24.5,53.1-54.9s-23.7-54.9-53.1-55
				l-5.3-0.1V78.5h3.5C344.3,78.5,395.6,129.8,395.6,193.1"/>
		</g>
	</g>
	<polygon class="st2" points="527.2,133.3 461.1,133.3 461.1,165.9 527.2,165.9 527.2,216.9 461.4,216.9 461.4,252.6 527.8,252.6 
		527.8,302.1 403.9,302.1 403.9,85 527.2,85 	"/>
	<polygon class="st2" points="666.3,133.9 595.6,133.9 595.6,168.6 666,168.6 666,219.4 595.6,219.4 595.6,302.1 540.6,302.1 
		540.6,85 666.3,85 	"/>
	<polygon class="st2" points="803.2,133.3 737.1,133.3 737.1,165.9 803.2,165.9 803.2,216.9 737.4,216.9 737.4,252.6 803.8,252.6 
		803.8,302.1 679.9,302.1 679.9,85 803.2,85 	"/>
	<g>
		<g>
			<defs>
				<rect id="SVGID_5_" x="28.5" y="74" width="1500" height="783.1"/>
			</defs>
			<clipPath id="SVGID_6_">
				<use xlink:href="#SVGID_5_"  style="overflow:visible;"/>
			</clipPath>
			<path class="st4" d="M973.6,166.2c-1.5-3.1-3.4-5.5-5.2-8.3c-10.5-13.9-26.1-21.5-43.7-21.5c-11.4,0-19.4,3.1-23.4,4.9
				c-21.2,8.9-34.1,29.5-34.1,52.3c0.3,10.5,2.8,17.5,4.3,21.2c4.3,10.2,19.7,35.4,53.2,35.4c8.9,0,15.1-1.9,18.8-3.1
				c3.4-1.2,15.4-6.8,23.7-16.6c2.2-2.8,3.4-4.6,6.8-10.1h60.3c-4.6,14.2-7.4,20.3-10.8,26.7c-20.9,38.7-55.6,52.3-71,56
				c-4.6,1.2-14.4,3.1-27,3.1c-55,0-84.2-33.8-95.3-49.8c-7.1-10.1-18.7-30.1-18.7-61.2c0-59,38.7-89.5,56.2-99.9
				c8.8-5.4,28.8-14.9,56.4-14.9c14.1,0,43,2.5,71.6,25.8c26.8,21.8,34.4,47.4,38.1,60H973.6z"/>
		</g>
	</g>
	<polygon class="st2" points="1167.6,133.9 1124.3,133.9 1124.3,302.1 1069.2,302.1 1069.2,133.6 1026.8,133.6 1026.8,85 1167.6,85 
			"/>
	<polygon class="st2" points="1304.3,133.3 1238.2,133.3 1238.2,165.9 1304.3,165.9 1304.3,216.9 1238.5,216.9 1238.5,252.6 
		1304.9,252.6 1304.9,302.1 1181,302.1 1181,85 1304.3,85 	"/>
	<g>
		<g>
			<defs>
				<rect id="SVGID_7_" x="28.5" y="74" width="1500" height="783.1"/>
			</defs>
			<clipPath id="SVGID_8_">
				<use xlink:href="#SVGID_7_"  style="overflow:visible;"/>
			</clipPath>
			<path class="st5" d="M1505,193.5c0,59.9-49.1,108.5-109,108.5h-76.9V85h77.4C1456.4,85,1505,133.6,1505,193.5 M1446.7,193.1
				c0-33-25.8-56.9-57.6-57.1l-12.8-0.1v114.4h12.8C1421,250.3,1446.7,226.1,1446.7,193.1"/>
		</g>
	</g>
	<polygon class="st2" points="1480.1,90 1480.1,84.8 1500.1,84.8 1500.1,90 1493.3,90 1493.3,108.5 1487,108.5 1487,90 	"/>
	<g>
		<g>
			<defs>
				<rect id="SVGID_9_" x="28.5" y="74" width="1500" height="783.1"/>
			</defs>
			<clipPath id="SVGID_10_">
				<use xlink:href="#SVGID_9_"  style="overflow:visible;"/>
			</clipPath>
			<path class="st6" d="M1522.6,91.9L1522.6,91.9l-4.5,16.6h-5l-4.5-16.6l-0.2-1c0.1,0.4,0,17.6,0,17.6h-5.6V84.8h8.7l3.7,13.9
				c0.2,0.8,0.4,2.1,0.5,3.6c0,0.4,0.1,0.8,0.1,1.1c0-0.8,0-1.7,0.1-2.5c0.1-1,0.3-1.7,0.4-2.3l3.7-13.9h8.7v23.7h-5.9V91.9H1522.6z
				"/>
		</g>
		<g>
			<defs>
				<rect id="SVGID_11_" x="28.5" y="74" width="1500" height="783.1"/>
			</defs>
			<clipPath id="SVGID_12_">
				<use xlink:href="#SVGID_11_"  style="overflow:visible;"/>
			</clipPath>
			<path class="st7" d="M1186.3,811.9c1.4,0.6,2.7,1.5,3.8,2.5c1.1,1.1,2,2.3,2.6,3.7s0.9,3,0.9,4.7c0,3.3-1.1,6.1-3.5,8.4
				c-2.3,2.4-5.1,3.5-8.5,3.5c-0.9,0-2.1-0.2-3.7-0.6c-1.6-0.4-3.1-1.3-4.7-2.9c-1.5-1.4-2.5-3.1-3-5c-0.2-0.4-0.3-0.9-0.4-1.4
				c0-0.6-0.2-1.2-0.4-2c0-1.6,0.3-3.2,0.9-4.6c0.6-1.4,1.5-2.7,2.6-3.8s2.4-2,3.8-2.6s3-0.9,4.7-0.9
				C1183.4,810.9,1184.9,811.3,1186.3,811.9 M1188.2,775.4c1.7,1.7,2.6,3.9,2.6,6.6c0,2.6-0.9,4.8-2.6,6.5c-1.7,1.8-3.9,2.7-6.6,2.7
				c-0.6,0-1.5-0.1-2.7-0.4c-1.2-0.2-2.5-1-3.8-2.4c-1.3-1.2-2.1-2.5-2.4-3.7c-0.2-1.2-0.4-2.1-0.4-2.7c0-2.6,0.9-4.8,2.6-6.6
				s3.9-2.7,6.6-2.7S1186.5,773.7,1188.2,775.4 M1208.3,847.6c1.6-1.4,3.2-3.3,4.8-5.5c1.6-2.2,3-4.8,4.2-7.7s1.8-6.3,1.8-10
				c0-1-0.1-2.3-0.3-4c-0.2-1.7-0.6-3.5-1.3-5.5c-0.7-2-1.7-4.1-2.9-6.3c-1.3-2.2-3-4.1-5.2-5.8c-0.4-0.3-0.7-0.6-1-0.8
				s-0.6-0.5-0.9-0.6c-0.3-0.3-0.7-0.6-1.2-0.9c-0.5-0.3-1.5-0.8-2.8-1.6c1.3-1.1,2.3-1.9,3-2.4c0.7-0.6,1.2-1.2,1.7-1.9
				c1-1.1,2.1-2.9,3.4-5.7c1.3-2.7,1.9-6.1,1.9-10.1c0-4.4-1.1-8.5-3.4-12.3s-5.1-6.9-8.4-9.4c-1.9-1.3-3.8-2.4-5.8-3.2
				c-1.9-0.8-3.7-1.3-5.4-1.7c-1.7-0.3-3.2-0.6-4.5-0.6c-1.3-0.1-2.4-0.1-3.3-0.1c-4.6,0-8.6,0.6-12,1.8s-6.3,2.7-8.8,4.4
				c-2.4,1.7-4.4,3.6-5.9,5.6s-2.6,3.8-3.5,5.3c-0.6,1.1-1.2,2.5-1.9,4.5c-0.7,1.9-1,4.4-1,7.5s0.3,5.6,1,7.7
				c0.7,2.1,1.5,3.8,2.6,5.2c0.7,0.9,1.5,1.8,2.5,2.7s2.4,2,4.1,3.4l-3.6,2.3c-0.9,0.6-2,1.5-3.3,2.7s-2.6,2.8-3.9,4.7
				c-1.2,1.9-2.3,4.1-3.2,6.6c-0.9,2.5-1.4,5.4-1.4,8.7c0,3.5,0.6,6.7,1.7,9.8s2.6,6,4.6,8.6s4.3,4.9,6.9,6.9c2.7,2,5.6,3.5,8.8,4.7
				c3.3,1.1,6.2,1.8,8.9,2.1c2.7,0.2,4.7,0.4,6,0.4c5.8,0,10.7-0.7,14.5-2.2c3.8-1.4,6.6-2.8,8.6-4.2
				C1205.4,850.1,1206.7,849,1208.3,847.6 M1140.2,854.8V753.3h-37.1v19.4h11.6v82.1H1140.2z M1075.5,804c0,1.1-0.1,2.4-0.3,4.1
				c-0.2,1.7-0.6,3.5-1.4,5.5c-0.7,2-1.8,4.1-3.1,6.3c-1.3,2.2-3.2,4.1-5.5,6c-1.7,1.4-3.5,2.6-5.3,3.5s-3.5,1.6-5.2,2
				c-1.6,0.4-3.1,0.7-4.4,0.9c-1.3,0.1-2.4,0.2-3.2,0.2c-3.6,0-7.2-0.7-10.6-2.1c-3.5-1.4-6.6-3.4-9.3-6.1c-1.9-1.9-3.4-3.9-4.5-5.9
				s-1.9-3.9-2.5-5.7s-0.9-3.4-1.1-5c-0.1-1.5-0.2-2.7-0.2-3.6c0-5.7,1.5-10.8,4.6-15.5c3.1-4.6,7.1-8.1,12.1-10.3
				c3.7-1.7,7.6-2.6,11.6-2.6c1,0,2.3,0.1,4,0.3c1.7,0.2,3.6,0.6,5.6,1.4c2,0.7,4.1,1.8,6.2,3.1s4.1,3.2,6,5.5
				C1073.3,791.2,1075.5,797.2,1075.5,804 M1096.8,822.7c2.3-6,3.4-12.2,3.4-18.5c0-7.8-1.6-15.2-4.9-22.3s-7.8-13.1-13.7-18.1
				c-3.4-2.9-6.8-5.2-10.2-6.8c-3.5-1.7-6.7-3-9.8-3.9c-3.1-0.9-5.9-1.5-8.4-1.7s-4.6-0.4-6.1-0.4c-7.5,0-14.7,1.5-21.6,4.6
				c-6.9,3.1-12.8,7.4-17.8,12.9c-4.3,4.9-7.7,10.4-10.1,16.5c-2.4,6.1-3.6,12.4-3.6,19.1c0,7,1.4,13.8,4.1,20.3
				c2.7,6.6,6.5,12.3,11.4,17.2s10.6,8.7,17.2,11.4s13.3,4.1,20.2,4.1c7.6,0,14.9-1.6,21.9-4.7c7-3.1,13.1-7.5,18-13.3
				C1091.3,834.2,1094.6,828.8,1096.8,822.7 M989.8,854.8v-23.7h-33.5l12.4-12.8c1.7-1.8,3.5-3.7,5.2-5.7c1.8-2,3.5-4,5.1-6.1
				s3.1-4.3,4.5-6.5s2.5-4.5,3.4-6.8c0.5-1.2,0.8-2.4,1-3.5s0.4-2.2,0.6-3.2c0.1-0.5,0.2-0.9,0.2-1.3c0-0.4,0.1-0.8,0.1-1.1v-2
				c0-3.5-0.5-6.7-1.4-9.4c-1-2.7-2.1-5.1-3.5-7.2c-1.4-2.1-2.8-3.8-4.3-5.1s-2.8-2.4-3.8-3.3c-2.2-1.3-4.4-2.4-6.5-3.2
				s-4.1-1.3-6-1.7c-1.9-0.3-3.5-0.6-5-0.6c-1.5-0.1-2.7-0.1-3.5-0.1c-4.3,0-8.1,0.4-11.3,1.3c-3.2,0.9-6,2-8.5,3.3
				c-2.4,1.3-4.5,2.8-6.2,4.4c-1.7,1.6-3.1,3.1-4.2,4.5c-2,2.5-3.5,5-4.5,7.6s-1.8,5.1-2.2,7.5c-0.2,1.2-0.4,2.3-0.5,3.3
				c-0.1,1.1-0.2,2.1-0.2,3v4.3l25.3,0.1v-2.2c0-0.6,0-1.2,0.1-1.8c0.1-2.2,0.5-4.3,1.2-6.4c0.7-2.1,2-3.8,3.9-5.1
				c1.3-1,2.9-1.4,4.6-1.4c2,0,3.8,0.6,5.2,1.7c1.5,1.1,2.6,2.6,3.2,4.5c0.1,0.4,0.2,0.7,0.2,0.9s0.1,0.5,0.2,0.8
				c0.1,0.4,0.2,0.8,0.2,1.2s0.1,0.9,0.1,1.5c0,2-0.3,4-0.9,5.9c-0.6,1.9-1.6,3.9-2.9,5.8c-1.3,2-2.9,4.1-4.9,6.3s-4.3,4.7-7.1,7.4
				l-8.2,7.9c-3.1,3-6.2,5.9-9.3,8.8c-3.2,2.9-6.5,6-9.9,9.1v19L989.8,854.8L989.8,854.8z M884,854.8v-23.9h-30.5v-77.6h-26.2v101.5
				H884z M821.6,753.3h-25.9v101.5h25.9V753.3z M765.1,785.2c0.2,1.2,0.4,2.5,0.4,3.9c0,2.2-0.3,4.1-1,5.8c-0.7,1.6-1.5,3-2.4,4.1
				s-1.9,2-2.9,2.6c-1.1,0.6-2,1.1-2.9,1.4c-0.8,0.2-1.5,0.3-2.2,0.4c-0.7,0.1-1.4,0.2-2.2,0.3c-0.4,0.1-0.9,0.1-1.6,0.1
				c-0.5,0-0.9,0-1.1,0.1H741V776h8.6c2.8,0,5.4,0.3,7.8,0.8c2.4,0.5,4.5,2.1,6.1,4.7C764.4,782.7,764.9,784,765.1,785.2
				 M793.1,854.8l-24.6-34.7c2.7-1.1,4.6-1.9,5.8-2.4c1.2-0.6,2.3-1.2,3.3-2c1.2-0.9,2.7-2,4.2-3.5c1.6-1.5,3.1-3.4,4.5-5.6
				c1.4-2.3,2.6-4.9,3.5-8c1-3.1,1.4-6.6,1.4-10.6c0-3.9-0.4-7.4-1.3-10.4c-0.9-3-1.9-5.7-3.2-8s-2.7-4.2-4.1-5.8
				c-1.4-1.6-2.8-2.9-4-3.8c-4-3.1-8.1-4.9-12.2-5.6c-4.1-0.7-8.6-1-13.4-1h-37.7v101.5H741v-32.5l20.7,32.5h31.4V854.8z M683.2,781
				c1.1,1.9,1.7,4.1,1.7,6.6c0,1.8-0.3,3.4-0.8,4.6c-0.5,1.2-1.2,2.3-1.9,3.1s-1.5,1.5-2.3,1.9c-0.8,0.5-1.6,0.8-2.2,1
				c-0.9,0.2-1.7,0.4-2.4,0.5c-0.8,0.1-2,0.2-3.6,0.2h-7.6v-22.7h8.1h2.9c0.9,0,1.9,0.2,2.9,0.6C680.3,777.7,682.1,779.1,683.2,781
				 M698.6,815.3c2.7-2.3,5-4.8,6.9-7.8c1.9-2.9,3.3-6.1,4.2-9.6s1.4-7,1.4-10.6s-0.5-7.2-1.4-10.6c-0.9-3.4-2.3-6.5-4.1-9.3
				s-4.1-5.3-6.9-7.4c-2.8-2.1-6-3.7-9.6-4.9c-3.1-1-6-1.5-8.9-1.7c-2.9-0.1-5.9-0.2-9.1-0.2h-33.6v101.5H664v-32.4h9.6
				c2.1,0,3.9,0,5.4-0.1c1.5,0,2.8-0.1,4-0.3c1.2-0.1,2.3-0.3,3.2-0.6c1-0.2,2-0.6,3-0.9C692.7,819.3,695.8,817.6,698.6,815.3
				 M593.5,819.4h-20.7l10.1-31.5L593.5,819.4z M635.2,854.8l-41.1-102.1H573l-40.7,102.1h29.2l4.7-14.2h34.1l5,14.2H635.2z
				 M508.5,774.1v-20.8h-66.7v22.6h40.5l-37,78.9h27.6L508.5,774.1z M419.3,804c0,1.1-0.1,2.4-0.3,4.1c-0.2,1.7-0.6,3.5-1.4,5.5
				c-0.7,2-1.8,4.1-3.1,6.3c-1.3,2.2-3.2,4.1-5.5,6c-1.7,1.4-3.5,2.6-5.3,3.5s-3.5,1.6-5.2,2c-1.6,0.4-3.1,0.7-4.4,0.9
				c-1.3,0.1-2.4,0.2-3.2,0.2c-3.6,0-7.2-0.7-10.6-2.1c-3.5-1.4-6.6-3.4-9.3-6.1c-1.9-1.9-3.4-3.9-4.5-5.9s-1.9-3.9-2.5-5.7
				s-0.9-3.4-1.1-5c-0.1-1.5-0.2-2.7-0.2-3.6c0-5.7,1.5-10.8,4.6-15.5c3.1-4.6,7.1-8.1,12.1-10.3c3.7-1.7,7.6-2.6,11.6-2.6
				c1,0,2.3,0.1,4,0.3s3.6,0.6,5.6,1.4c2,0.7,4.1,1.8,6.2,3.1s4.1,3.2,6,5.5C417.1,791.2,419.3,797.2,419.3,804 M440.6,822.7
				c2.3-6,3.4-12.2,3.4-18.5c0-7.8-1.6-15.2-4.9-22.3s-7.8-13.1-13.7-18.1c-3.4-2.9-6.8-5.2-10.2-6.8c-3.4-1.7-6.7-3-9.8-3.9
				c-3.1-0.9-5.9-1.5-8.4-1.7s-4.6-0.4-6.1-0.4c-7.5,0-14.7,1.5-21.6,4.6s-12.8,7.4-17.8,12.9c-4.3,4.9-7.7,10.4-10.1,16.5
				s-3.6,12.4-3.6,19.1c0,7,1.4,13.8,4.1,20.3c2.7,6.6,6.5,12.3,11.4,17.2s10.6,8.7,17.2,11.4s13.3,4.1,20.2,4.1
				c7.6,0,14.9-1.6,21.9-4.7c7-3.1,13.1-7.5,18-13.3C435.1,834.2,438.4,828.8,440.6,822.7"/>
		</g>
		<g>
			<defs>
				<rect id="SVGID_13_" x="28.5" y="74" width="1500" height="783.1"/>
			</defs>
			<clipPath id="SVGID_14_">
				<use xlink:href="#SVGID_13_"  style="overflow:visible;"/>
			</clipPath>
			<path class="st8" d="M1436.7,731.5V630h-25.6v55.9l-11.9-18.3c-4.3-6.5-8.6-12.8-12.9-18.9c-4.3-6.1-8.7-12.3-13.2-18.8h-22.6
				v101.5h25.5V676l38.1,55.5H1436.7z M1318.2,680.6c0,2.2-0.2,4.2-0.7,6.1c-0.5,1.9-1.1,3.5-1.8,5c-0.7,1.4-1.5,2.7-2.2,3.7
				c-0.8,1-1.4,1.8-2,2.4c-0.6,0.6-1.4,1.3-2.5,2.2s-2.4,1.8-3.9,2.7s-3.2,1.6-5.2,2.2c-2,0.6-4.2,0.9-6.6,0.9
				c-3.3,0-6.4-0.6-9.6-1.9c-3.1-1.3-5.8-3.1-8.1-5.4c-1.6-1.6-2.9-3.3-4-5.1c-1-1.8-1.8-3.5-2.2-5c-0.5-1.6-0.8-3-0.9-4.4
				c-0.1-1.3-0.2-2.4-0.2-3.2c0-3.4,0.6-6.6,1.9-9.7c1.3-3.1,3.1-5.8,5.5-8.1c3.4-3.1,6.7-5,10.1-5.9s5.8-1.3,7.5-1.3
				c5.2,0,9.9,1.5,14.2,4.5c4.3,3,7.4,6.9,9.2,11.6C1317.7,674.7,1318.2,677.7,1318.2,680.6 M1340.3,704.6c1.7-3.4,2.9-6.6,3.8-9.6
				s1.4-5.8,1.7-8.3c0.2-2.5,0.4-4.5,0.4-6c0-7.8-1.6-15.2-4.9-22.3s-7.8-13.1-13.7-18.1c-1.1-1-2.8-2.2-4.9-3.6
				c-2.1-1.4-4.6-2.8-7.5-4.2c-2.9-1.3-6.2-2.5-9.9-3.5c-3.7-1-7.7-1.4-12-1.4c-7.6,0-14.9,1.6-22.1,4.9
				c-7.1,3.3-13.2,7.8-18.2,13.7c-2.9,3.4-5.2,6.7-6.8,10.1c-1.7,3.4-2.9,6.7-3.8,9.8s-1.4,5.9-1.7,8.4c-0.2,2.5-0.4,4.5-0.4,6
				c0,6.9,1.4,13.6,4.1,20.2c2.7,6.6,6.5,12.3,11.4,17.2s10.6,8.7,17.2,11.4s13.3,4.1,20.2,4.1c7.8,0,15.2-1.6,22.4-4.8
				c7.1-3.2,13.2-7.8,18-13.9C1336.4,711.3,1338.6,708,1340.3,704.6 M1211.6,678.4c0,1.2,0.1,2.1,0.1,2.8c0,0.6-0.1,2-0.2,4.2
				s-0.6,4.7-1.5,7.3c-0.9,2.7-2.2,5.3-4,7.9c-1.8,2.6-4.3,4.6-7.6,5.9c-1.8,0.8-3.6,1.2-5.2,1.4c-1.7,0.1-3.5,0.2-5.5,0.2h-14.5
				V653h10.1c2.4,0,4.6,0.1,6.5,0.2c2,0.1,4,0.6,6.3,1.4c4.3,1.6,7.7,4.2,10.1,7.8c2.4,3.5,4,7.5,4.9,11.8
				C1211.3,675.8,1211.5,677.2,1211.6,678.4 M1231.8,706.1c1.7-3.6,3-7.1,3.8-10.4c0.8-3.3,1.3-6.3,1.5-9s0.3-4.9,0.3-6.6
				c0-3.2-0.2-5.8-0.5-7.8c-0.3-2.1-0.6-3.8-0.9-5.1c-0.9-3.8-2.2-7.6-3.9-11.3c-1.7-3.7-3.8-7.1-6.3-10.1c-2.4-3.1-5.3-5.8-8.6-8.1
				c-3.3-2.3-6.8-4.1-10.6-5.4c-2.1-0.7-4.2-1.1-6.3-1.4c-2.1-0.2-4-0.5-5.7-0.6c-1.8-0.2-3.4-0.3-4.7-0.2c-1.3,0-2.3,0.1-2.9,0.1
				h-40v101.5h38.8c4,0,7.8-0.1,11.4-0.4c3.5-0.3,7.2-1.1,11.1-2.6c4.5-1.7,8.1-3.8,10.6-6.1c2.6-2.3,4.5-4.2,5.6-5.5
				C1227.7,713.3,1230.1,709.7,1231.8,706.1 M1141.3,731.5V630h-25.6v55.9l-11.9-18.3c-4.3-6.5-8.6-12.8-12.9-18.9
				c-4.3-6.1-8.7-12.3-13.2-18.8h-22.6v101.5h25.5V676l38.1,55.5H1141.3z M1022.9,680.6c0,2.2-0.2,4.2-0.7,6.1
				c-0.5,1.9-1.1,3.5-1.8,5c-0.7,1.4-1.5,2.7-2.2,3.7c-0.8,1-1.4,1.8-2,2.4c-0.6,0.6-1.4,1.3-2.5,2.2s-2.4,1.8-3.9,2.7
				s-3.2,1.6-5.2,2.2c-2,0.6-4.2,0.9-6.6,0.9c-3.3,0-6.4-0.6-9.6-1.9c-3.1-1.3-5.8-3.1-8.1-5.4c-1.6-1.6-2.9-3.3-4-5.1
				c-1-1.8-1.8-3.5-2.2-5c-0.5-1.6-0.8-3-0.9-4.4c-0.1-1.3-0.2-2.4-0.2-3.2c0-3.4,0.6-6.6,1.9-9.7c1.3-3.1,3.1-5.8,5.5-8.1
				c3.4-3.1,6.7-5,10.1-5.9c3.4-0.9,5.8-1.3,7.5-1.3c5.2,0,9.9,1.5,14.2,4.5s7.4,6.9,9.2,11.6
				C1022.3,674.7,1022.9,677.7,1022.9,680.6 M1044.9,704.6c1.7-3.4,2.9-6.6,3.8-9.6s1.4-5.8,1.7-8.3c0.2-2.5,0.4-4.5,0.4-6
				c0-7.8-1.6-15.2-4.9-22.3c-3.3-7.1-7.8-13.1-13.7-18.1c-1.1-1-2.8-2.2-4.9-3.6c-2.1-1.4-4.6-2.8-7.5-4.2
				c-2.9-1.3-6.2-2.5-9.9-3.5s-7.7-1.4-12-1.4c-7.6,0-14.9,1.6-22.1,4.9c-7.1,3.3-13.2,7.8-18.2,13.7c-2.9,3.4-5.2,6.7-6.8,10.1
				c-1.7,3.4-2.9,6.7-3.8,9.8c-0.9,3.1-1.4,5.9-1.7,8.4c-0.2,2.5-0.4,4.5-0.4,6c0,6.9,1.4,13.6,4.1,20.2c2.7,6.6,6.5,12.3,11.4,17.2
				s10.6,8.7,17.2,11.4c6.6,2.7,13.3,4.1,20.2,4.1c7.8,0,15.2-1.6,22.4-4.8c7.1-3.2,13.2-7.8,18-13.9
				C1041,711.3,1043.3,708,1044.9,704.6 M947.8,731.5v-23.9h-30.5V630h-26.2v101.5H947.8z M857.4,718.5c0.4-2.4,0.6-5.2,0.6-8.1
				v-25.9h-23.7v24h9.6c0.3,4-0.2,6.9-1.4,8.7s-4,2.6-8.2,2.5v11.9h4.2h2.6c2.5-0.2,4.8-0.7,7-1.6c2.2-0.9,4-2.3,5.7-4.2
				C855.8,723.4,857,720.9,857.4,718.5 M797.3,688.6c1.4,0.6,2.7,1.5,3.8,2.5c1.1,1.1,2,2.3,2.6,3.7s0.9,3,0.9,4.7
				c0,3.3-1.2,6.1-3.5,8.4c-2.3,2.3-5.1,3.5-8.5,3.5c-0.9,0-2.1-0.2-3.7-0.6c-1.6-0.4-3.1-1.3-4.7-2.9c-1.5-1.4-2.5-3.1-3-5
				c-0.2-0.4-0.3-0.9-0.4-1.4c0-0.6-0.2-1.2-0.4-2c0-1.6,0.3-3.2,0.9-4.6c0.6-1.4,1.5-2.7,2.6-3.8s2.4-2,3.8-2.6
				c1.4-0.6,3-0.9,4.7-0.9C794.3,687.7,795.8,688,797.3,688.6 M799.1,652.2c1.7,1.7,2.6,3.9,2.6,6.6c0,2.6-0.9,4.8-2.6,6.5
				c-1.7,1.8-3.9,2.7-6.6,2.7c-0.6,0-1.5-0.1-2.7-0.4c-1.2-0.2-2.5-1-3.8-2.4c-1.3-1.2-2.1-2.5-2.4-3.7c-0.2-1.2-0.4-2.1-0.4-2.7
				c0-2.6,0.9-4.8,2.6-6.6c1.7-1.8,3.9-2.7,6.6-2.7S797.4,650.4,799.1,652.2 M819.2,724.3c1.6-1.4,3.2-3.3,4.8-5.5s3-4.8,4.2-7.7
				s1.8-6.3,1.8-10c0-1-0.1-2.3-0.3-4s-0.6-3.5-1.3-5.5s-1.7-4.1-2.9-6.3s-3-4.1-5.2-5.8c-0.4-0.3-0.7-0.5-1-0.8
				c-0.3-0.2-0.6-0.5-0.9-0.6c-0.3-0.3-0.7-0.6-1.2-0.9s-1.5-0.8-2.8-1.6c1.3-1.1,2.3-1.9,3-2.4c0.7-0.6,1.2-1.2,1.7-1.9
				c1-1.1,2.1-2.9,3.4-5.7c1.3-2.7,1.9-6.1,1.9-10.1c0-4.4-1.1-8.5-3.4-12.3c-2.3-3.8-5.1-6.9-8.4-9.4c-1.9-1.3-3.8-2.4-5.8-3.2
				c-1.9-0.8-3.7-1.3-5.4-1.7c-1.7-0.3-3.2-0.6-4.5-0.6c-1.3-0.1-2.4-0.1-3.3-0.1c-4.6,0-8.6,0.6-12,1.8s-6.3,2.7-8.8,4.4
				c-2.4,1.7-4.4,3.6-5.9,5.6s-2.6,3.8-3.5,5.3c-0.6,1.1-1.2,2.5-1.9,4.5c-0.7,1.9-1,4.4-1,7.5s0.3,5.6,1,7.7
				c0.7,2.1,1.5,3.8,2.6,5.2c0.7,0.9,1.5,1.8,2.5,2.7s2.4,2,4.1,3.4l-3.6,2.3c-0.9,0.6-2,1.5-3.3,2.7s-2.6,2.8-3.9,4.7
				c-1.2,1.9-2.3,4.1-3.2,6.6s-1.4,5.4-1.4,8.7c0,3.5,0.5,6.7,1.7,9.8c1.1,3.1,2.6,6,4.6,8.6s4.3,4.9,6.9,6.9c2.7,2,5.6,3.5,8.8,4.7
				c3.3,1.1,6.2,1.8,8.9,2.1c2.7,0.2,4.7,0.4,6,0.4c5.8,0,10.7-0.7,14.5-2.2c3.8-1.4,6.6-2.8,8.6-4.2
				C816.3,726.8,817.6,725.8,819.2,724.3 M746.9,718.6c1.5-2.3,2.7-4.5,3.5-6.6s1.4-4.1,1.7-5.9c0.3-1.8,0.4-3.4,0.4-4.6
				c0-2.5-0.2-4.6-0.7-6.2c-0.5-1.6-0.9-2.8-1.1-3.6c-0.7-1.6-1.8-3.6-3.2-5.8c-1.5-2.3-4.1-4.3-7.7-6.3l-4.9-2.7
				c1.4-1,2.4-1.7,3-2.2s1.1-0.9,1.6-1.3c5.2-4.9,7.8-10.8,7.8-17.8c0-6-1.7-11.3-5.2-15.7c-3.5-4.5-7.9-7.7-13.4-9.7
				c-1-0.4-2.6-0.8-4.8-1.4s-4.8-0.8-7.7-0.8c-2.1,0-3.9,0.1-5.5,0.4c-1.5,0.2-2.7,0.5-3.5,0.6c-1.6,0.4-2.9,0.7-3.7,1
				c-0.9,0.3-1.7,0.6-2.4,0.9c-2,1-3.9,2.1-5.6,3.3c-1.6,1.3-2.7,2.3-3.2,2.7c-1.7,1.6-3.1,3.3-4.2,4.9c-1.1,1.6-2,3.3-2.6,5.1
				s-1.1,3.7-1.4,5.8c-0.3,2.1-0.6,4.3-0.9,6.8h24.9v-2.2c0.3-1.9,1.1-3.6,2.3-5.2c1.2-1.5,3-2.3,5.3-2.3c2.5,0,4.3,0.9,5.3,2.8
				c1.1,1.9,1.6,3.9,1.6,6.1c0,1.7-0.1,3.1-0.4,4.2s-0.6,2-1,2.7c-1.3,2.3-3,3.8-5.1,4.4c-2.1,0.6-4.3,0.9-6.8,0.9h-3.8v19.4h6.8
				c1.8,0,3.5,0.1,5,0.3s3.1,0.8,4.7,1.9c1.9,1.3,3.1,2.9,3.5,4.6c0.4,1.7,0.6,3,0.6,3.9c0,2.8-0.9,5.2-2.6,7.3
				c-1.7,2.1-4.1,3.2-7.2,3.2c-2.1,0-4.1-0.6-5.8-1.7c-1.8-1.1-3-2.6-3.8-4.5c-0.1-0.4-0.2-0.7-0.2-0.9s-0.1-0.6-0.2-0.9
				c-0.1-0.3-0.1-0.6-0.1-1.1c0-0.4,0-0.9-0.1-1.5h-25.6c0.2,1.4,0.3,2.7,0.4,3.7c0,1,0.2,1.9,0.4,2.7c0.2,1.1,0.4,2.1,0.6,3.2
				c0.2,1.1,0.6,2.1,0.9,3.2c1.3,3.5,3.2,6.6,5.5,9.1s5,4.6,8,6.2c3,1.6,6.2,2.8,9.6,3.5c3.5,0.8,6.9,1.1,10.5,1.1
				c4.7,0,9.1-0.6,13.1-1.9c4-1.2,7.9-3.4,11.5-6.5C743.4,723.1,745.4,720.9,746.9,718.6 M671.7,718.6c1.5-2.3,2.7-4.5,3.5-6.6
				s1.4-4.1,1.7-5.9c0.3-1.8,0.4-3.4,0.4-4.6c0-2.5-0.2-4.6-0.7-6.2c-0.5-1.6-0.9-2.8-1.2-3.6c-0.7-1.6-1.8-3.6-3.2-5.8
				c-1.5-2.3-4-4.3-7.7-6.3l-4.9-2.7c1.4-1,2.4-1.7,3-2.2s1.1-0.9,1.6-1.3c5.2-4.9,7.8-10.8,7.8-17.8c0-6-1.7-11.3-5.2-15.7
				c-3.5-4.5-7.9-7.7-13.4-9.7c-1-0.4-2.6-0.8-4.8-1.4c-2.3-0.5-4.8-0.8-7.7-0.8c-2.1,0-3.9,0.1-5.5,0.4c-1.5,0.2-2.7,0.5-3.4,0.6
				c-1.6,0.4-2.9,0.7-3.7,1s-1.7,0.6-2.4,0.9c-2,1-3.9,2.1-5.6,3.3c-1.6,1.3-2.7,2.3-3.2,2.7c-1.7,1.6-3.1,3.3-4.2,4.9
				c-1.1,1.6-2,3.3-2.6,5.1s-1.1,3.7-1.4,5.8c-0.3,2.1-0.6,4.3-0.9,6.8h24.9v-2.2c0.3-1.9,1.1-3.6,2.3-5.2s3-2.3,5.3-2.3
				c2.5,0,4.3,0.9,5.3,2.8c1.1,1.9,1.6,3.9,1.6,6.1c0,1.7-0.1,3.1-0.4,4.2c-0.3,1.1-0.6,2-1,2.7c-1.3,2.3-3,3.8-5.1,4.4
				c-2.1,0.6-4.3,0.9-6.8,0.9h-3.6v19.4h6.8c1.8,0,3.5,0.1,5,0.3s3.1,0.8,4.7,1.9c1.9,1.3,3.1,2.9,3.5,4.6c0.4,1.7,0.6,3,0.6,3.9
				c0,2.8-0.9,5.2-2.6,7.3c-1.7,2.1-4.1,3.2-7.2,3.2c-2.1,0-4-0.6-5.8-1.7c-1.8-1.1-3-2.6-3.8-4.5c-0.1-0.4-0.2-0.7-0.2-0.9
				s-0.1-0.6-0.2-0.9c-0.1-0.3-0.1-0.6-0.1-1.1c0-0.4,0-0.9-0.1-1.5h-25.6c0.2,1.4,0.3,2.7,0.4,3.7c0,1,0.2,1.9,0.4,2.7
				c0.2,1.1,0.4,2.1,0.6,3.2c0.2,1.1,0.6,2.1,0.9,3.2c1.3,3.5,3.2,6.6,5.5,9.1s5,4.6,8,6.2c3,1.6,6.2,2.8,9.6,3.5
				c3.4,0.8,6.9,1.1,10.5,1.1c4.7,0,9.1-0.6,13.1-1.9c4-1.2,7.9-3.4,11.5-6.5C668.2,723.1,670.2,720.9,671.7,718.6 M546.9,680.6
				c0,2.2-0.2,4.2-0.7,6.1c-0.5,1.9-1.1,3.5-1.8,5c-0.7,1.4-1.5,2.7-2.2,3.7c-0.8,1-1.4,1.8-2,2.4c-0.6,0.6-1.4,1.3-2.5,2.2
				c-1.1,0.9-2.4,1.8-3.9,2.7s-3.2,1.6-5.2,2.2c-2,0.6-4.2,0.9-6.6,0.9c-3.3,0-6.4-0.6-9.6-1.9c-3.1-1.3-5.8-3.1-8.1-5.4
				c-1.6-1.6-2.9-3.3-4-5.1c-1-1.8-1.8-3.5-2.2-5c-0.5-1.6-0.8-3-0.9-4.4c-0.1-1.3-0.2-2.4-0.2-3.2c0-3.4,0.6-6.6,1.9-9.7
				c1.3-3.1,3.1-5.8,5.5-8.1c3.4-3.1,6.7-5,10.1-5.9c3.4-0.9,5.8-1.3,7.5-1.3c5.2,0,9.9,1.5,14.2,4.5s7.4,6.9,9.2,11.6
				C546.4,674.7,546.9,677.7,546.9,680.6 M569,704.6c1.7-3.4,2.9-6.6,3.8-9.6c0.9-3,1.4-5.8,1.7-8.3c0.2-2.5,0.4-4.5,0.4-6
				c0-7.8-1.6-15.2-4.9-22.3c-3.3-7.1-7.8-13.1-13.7-18.1c-1.2-1-2.8-2.2-4.9-3.6c-2.1-1.4-4.6-2.8-7.5-4.2
				c-2.9-1.3-6.2-2.5-9.9-3.5s-7.7-1.4-12-1.4c-7.6,0-14.9,1.6-22.1,4.9c-7.1,3.3-13.2,7.8-18.2,13.7c-2.9,3.4-5.2,6.7-6.8,10.1
				c-1.7,3.4-2.9,6.7-3.8,9.8s-1.4,5.9-1.7,8.4c-0.2,2.5-0.4,4.5-0.4,6c0,6.9,1.4,13.6,4.1,20.2c2.7,6.6,6.5,12.3,11.4,17.2
				s10.6,8.7,17.2,11.4s13.3,4.1,20.2,4.1c7.8,0,15.2-1.6,22.4-4.8c7.1-3.2,13.2-7.8,18-13.9C565.1,711.3,567.3,708,569,704.6
				 M464.7,630h-25.9v101.5h25.9V630z M408.7,678.4c0,1.2,0.1,2.1,0.1,2.8c0,0.6-0.1,2-0.2,4.2s-0.6,4.7-1.5,7.3
				c-0.9,2.7-2.2,5.3-4,7.9c-1.8,2.6-4.3,4.6-7.5,5.9c-1.8,0.8-3.6,1.2-5.2,1.4c-1.7,0.1-3.5,0.2-5.5,0.2h-14.5V653h10.1
				c2.4,0,4.6,0.1,6.5,0.2c2,0.1,4,0.6,6.3,1.4c4.3,1.6,7.7,4.2,10.1,7.8c2.4,3.5,4,7.5,4.9,11.8
				C408.4,675.8,408.6,677.2,408.7,678.4 M428.9,706.1c1.7-3.6,3-7.1,3.8-10.4c0.8-3.3,1.3-6.3,1.5-9s0.3-4.9,0.3-6.6
				c0-3.2-0.2-5.8-0.5-7.8c-0.3-2.1-0.6-3.8-0.9-5.1c-0.9-3.8-2.2-7.6-3.9-11.3c-1.7-3.7-3.8-7.1-6.3-10.1c-2.4-3.1-5.3-5.8-8.6-8.1
				c-3.3-2.3-6.8-4.1-10.6-5.4c-2.1-0.7-4.2-1.1-6.3-1.4c-2.1-0.2-4-0.5-5.7-0.6c-1.8-0.2-3.4-0.3-4.7-0.2c-1.3,0-2.3,0.1-2.9,0.1
				h-40v101.5h38.8c4,0,7.8-0.1,11.4-0.4c3.5-0.3,7.2-1.1,11.1-2.6c4.5-1.7,8.1-3.8,10.6-6.1c2.6-2.3,4.5-4.2,5.6-5.5
				C424.8,713.3,427.2,709.7,428.9,706.1 M338.3,696.9c0.1-3.2,0.1-6.3,0.1-9.3V630h-25.9v63.8v3.3c0,3.4-1.2,6.1-3.6,8.3
				s-5.3,3.2-8.8,3.2h-1.2c-0.5,0-1.1,0-1.7-0.1c-0.7-0.1-1.3-0.3-2-0.6s-1.3-0.6-2-1c-2.2-1.6-3.6-3.5-4.2-5.6s-0.9-4.4-0.9-6.9
				V630h-25.9v61.3c0,2.5,0,4.7,0.1,6.5s0.2,3.4,0.4,4.8c0.1,1.4,0.3,2.7,0.6,3.9c0.2,1.2,0.5,2.4,0.9,3.5c0.7,2.4,1.8,5,3.4,7.7
				c1.6,2.7,3.8,5.3,6.6,7.6c2.8,2.4,6.3,4.3,10.4,5.9c4.1,1.6,9.2,2.4,15.1,2.4c6.2,0,11.2-0.8,14.8-2.3c3.6-1.5,6.6-3.1,8.8-4.7
				c2.6-1.8,4.7-3.7,6.3-5.7c1.6-2,2.9-3.9,4-5.7c1-1.8,1.7-3.5,2.2-5.1s0.9-2.9,1.1-4C337.8,703.2,338.2,700.2,338.3,696.9
				 M256.5,653v-23h-65.9v22.9h19.9v78.6h25.7V653H256.5z M182.4,719.4c1.8-2.5,3.1-4.9,4-7.3c0.9-2.3,1.5-4.6,1.7-6.7
				c0.2-2.1,0.4-3.9,0.4-5.5s-0.2-3.9-0.6-6.7c-0.4-2.8-1.9-5.9-4.4-9.3c-0.9-1.2-1.7-2.3-2.6-3c-0.6-0.7-1.2-1.3-2-1.9
				c-1.3-1.2-3.4-2.7-6-4.2c-2.7-1.6-6.2-3.4-10.6-5.4c-1.8-0.8-3.4-1.4-4.7-2s-2.5-1.1-3.7-1.7c-2-1.1-3.6-2.4-4.7-3.9
				c-0.3-0.4-0.6-0.9-0.9-1.7c-0.3-0.7-0.5-1.6-0.5-2.7c0-2.5,0.7-4.5,2.2-5.9c1.4-1.4,3.4-2.2,5.8-2.2c1.8,0,3.5,0.5,4.9,1.4
				c1.4,1,2.4,2.3,2.9,4c0.2,0.5,0.3,1,0.4,1.6c0,0.6,0.1,1.5,0.1,2.9h24c-0.2-1.3-0.3-2.5-0.2-3.4c0-0.9,0-1.9-0.2-2.9
				c-0.2-0.5-0.3-1-0.4-1.5c0-0.5-0.2-1-0.4-1.5c-0.1-0.5-0.2-1-0.4-1.4c-0.2-0.5-0.4-1-0.6-1.6c-0.5-1.2-1.2-2.6-2.2-4.2
				c-1-1.7-2.2-3.4-3.7-5.1c-1.5-1.7-3.4-3.4-5.6-4.9c-2.3-1.5-4.9-2.8-8-3.9c-2.5-0.9-4.7-1.4-6.7-1.5s-3.5-0.2-4.7-0.2
				s-2.7,0.1-4.5,0.3c-1.9,0.2-4,0.6-6.3,1.3s-4.7,1.7-7.2,2.9c-2.5,1.3-4.9,3-7.2,5.2c-2.1,2-3.8,4-5,6s-2.1,4-2.7,5.8
				c-0.6,1.9-1,3.6-1.1,5.2c-0.1,1.6-0.2,2.9-0.2,4.1c0,4,0.6,7.5,1.9,10.6c1.3,3,2.8,5.6,4.5,7.8c1.7,2.2,3.5,3.9,5.4,5.2
				c1.9,1.3,3.4,2.3,4.5,2.9c1.8,1,3.6,1.8,5.4,2.7c1.8,0.8,3.6,1.6,5.5,2.4l4.7,1.9c2.4,1.2,4.5,2.7,6.4,4.2c1.9,1.6,2.8,3.9,2.8,7
				c0,2.5-0.8,4.6-2.4,6.2c-1.6,1.6-3.7,2.4-6.3,2.4c-1.2,0-2.3-0.1-3-0.4c-0.8-0.3-1.4-0.6-1.9-0.9c-2.2-1.2-3.5-2.9-4-5.1
				c-0.4-2.2-0.6-4.5-0.6-7h-24.8c0.1,3.2,0.3,6,0.6,8.5c0.3,2.5,0.9,5,1.7,7.5c0.7,1.9,1.8,4,3.3,6.3s3.6,4.4,6.1,6.3
				c2.5,2,5.7,3.6,9.3,5c3.7,1.3,8.1,2,13.2,2c1.2,0,2.5,0,4.1-0.1s3.3-0.4,5.2-0.8c1.9-0.4,3.9-1.1,6-2c2.2-0.9,4.4-2.2,6.7-4
				C178.2,724.3,180.6,721.9,182.4,719.4"/>
		</g>
	</g>
</g>
<g>
	<rect x="25" y="265.9" transform="matrix(0.9309 -0.3653 0.3653 0.9309 -116.7613 316.69)" width="1507.1" height="401.9"/>
	<g>
		<path class="st2" d="M323.9,743.4c-3.2,5.2-6.6,9.5-10.1,13c-3.5,3.5-7,6.3-10.3,8.6s-6.5,4.1-9.6,5.6c-3,1.4-5.7,2.6-8,3.5
			c-10,3.9-19.2,6-27.5,6.2c-8.3,0.2-15.7-0.6-22.3-2.5c-6.5-1.9-12.2-4.5-16.9-7.7c-4.8-3.2-8.6-6.5-11.4-9.8
			c-3.6-4.2-6.7-8.7-9.2-13.4c-2.5-4.7-5.1-10.1-7.7-16.3l48.7-19.1c1.9,4.9,4.2,9.3,6.7,13.2s6.4,6.3,11.7,7
			c1.2,0.2,2.6,0.3,4.4,0.3c1.7,0,3.8-0.5,6.3-1.5c5.1-2,8.6-5.2,10.6-9.7c2-4.5,2-9.2,0-14.1c-2.4-6-6-9.9-10.9-11.6
			c-4.9-1.7-10.2-2.8-15.9-3.4l-10.8,0c-4.4,0-8.6-0.2-12.7-0.4c-4.1-0.2-8.4-0.6-12.7-1.1c-2.8-0.4-6.5-1.2-11.2-2.3
			c-4.7-1.1-9.6-3.1-14.6-6s-10-6.8-14.9-11.8c-4.9-4.9-8.9-11.4-12-19.3c-0.9-2.3-1.8-5-2.7-8.2c-0.9-3.2-1.5-6.9-1.7-11.1
			c-0.2-4.2,0.1-8.7,0.9-13.6c0.8-4.9,2.5-10.1,5.1-15.7c2.8-6.1,6.2-11.4,10.1-15.9c3.9-4.5,7.9-8.3,11.9-11.4
			c4-3.1,7.8-5.6,11.3-7.4c3.5-1.8,6.4-3.2,8.7-4.1c2.3-0.9,5.4-2,9.4-3.2c4-1.2,8.8-2,14.3-2.2c6.9-0.3,13.1,0.2,18.7,1.5
			c5.6,1.3,10.6,3,14.8,5.3c4.3,2.3,8,4.7,11.2,7.2c3.2,2.6,5.7,4.8,7.5,6.7c0.8,1,1.6,1.9,2.4,2.7c0.7,0.8,1.4,1.6,2,2.5
			c0.7,0.8,1.4,1.7,1.9,2.7c0.5,1,1.1,1.9,1.9,2.7c1.2,1.9,2.1,3.8,2.7,5.6c0.6,1.8,1.6,4,3,6.5l-47.3,18.6c-1-2.6-1.8-4.5-2.4-5.6
			c-0.5-1.1-1.2-2-1.9-2.8c-2.3-3-5.2-4.9-8.8-5.7c-3.6-0.8-7.2-0.5-10.7,0.9c-4.7,1.9-7.9,4.8-9.7,8.7s-1.6,8.4,0.3,13.3
			c0.8,2.1,1.8,3.7,3,4.9c1.2,1.2,2.3,2,3.1,2.5c3.4,1.9,7.5,3.3,12.4,4c2.7,0.2,5.6,0.4,8.6,0.6c3,0.1,6.6,0.3,10.8,0.4
			c10.2,0.6,18.6,1.4,25.1,2.4c6.5,1,11.6,2.3,15.2,3.7c2,0.5,3.8,1.3,5.4,2.1c2.3,0.8,4.8,2.2,7.4,3.9c7.5,4.7,12.8,9.6,15.8,14.9
			c3,5.2,5.2,9.5,6.4,12.7c1.2,3,2.4,6.7,3.5,11c1.2,4.3,1.7,9.2,1.8,14.5c0,5.3-0.8,11.1-2.3,17.4
			C331.1,729.9,328.2,736.5,323.9,743.4z"/>
		<path class="st2" d="M527.8,636.2c-5,15.7-13.2,29.5-24.8,41.3c-11.6,11.9-25,20.8-40.3,26.8c-13.6,5.3-27.9,7.9-43,7.5
			c-15.1-0.3-29.3-3.4-42.7-9.2c-13.4-5.9-25.4-14.2-35.8-25c-10.5-10.8-18.4-23-23.7-36.6c-1.2-3-2.5-7.1-4-12.2
			c-1.5-5.1-2.5-11-3.2-17.9c-0.7-6.8-0.7-14.2-0.1-22.2c0.7-8,2.5-16.4,5.6-25.3c5.3-15.4,13.7-29,25.3-41
			c11.6-11.9,24.8-20.8,39.7-26.7c8.5-3.3,16.8-5.5,24.8-6.5c8-1,15.4-1.3,22.2-0.9c6.8,0.4,12.8,1.2,18.1,2.4
			c5.3,1.2,9.4,2.3,12.4,3.3c15.4,5.3,29,13.7,40.9,25.1c11.9,11.5,20.9,24.8,26.9,40.1c1.2,3,2.5,7.1,4,12.2
			c1.5,5.1,2.5,11,3.1,17.6c0.6,6.6,0.6,13.9-0.1,21.9C532.4,619.1,530.7,627.5,527.8,636.2z M461.1,564.6
			c-7.3-8-16.3-13.3-27.1-15.8c-10.8-2.5-21.3-1.8-31.5,2.2c-3.2,1.3-7.8,4-13.7,8.3c-5.9,4.3-11,10.8-15.3,19.4
			c-2.9,6.4-4.5,13.2-4.6,20.3c-0.1,7.1,1.1,14,3.7,20.6c0.6,1.5,1.6,3.5,2.9,6.1c1.3,2.5,3.1,5.2,5.2,7.9c2.2,2.7,4.9,5.5,8.3,8.2
			c3.4,2.7,7.3,5.1,11.7,7c6.3,2.8,13,4.2,20.2,4.3c7.1,0.1,13.9-1,20.3-3.6c4.7-1.9,8.8-4.1,12.4-6.8c3.5-2.7,6.4-5.5,8.7-8.3
			c2.3-2.8,4.1-5.6,5.6-8.2c1.5-2.6,2.5-4.8,3.2-6.3s1.4-3.7,2.1-6.2c0.7-2.6,1.3-5.6,1.6-8.9c0.3-3.4,0.2-7.1-0.3-11.2
			c-0.5-4.1-1.6-8.3-3.3-12.6C468.8,575.1,465.5,569.7,461.1,564.6z"/>
		<path class="st2" d="M571.1,657.5l-78.5-200l51.6-20.2l60.1,153l60.1-23.6l18.5,47L571.1,657.5z"/>
		<path class="st2" d="M832.6,521.5c-1.2,3.5-3.5,8.6-6.8,15.2c-3.3,6.6-8.7,13.4-16.2,20.3c-6.4,5.8-13.1,10.4-19.8,13.7
			c-6.8,3.3-14.1,6.5-22.1,9.6l-76.5,30l-78.5-200l78.8-30.9c1.3-0.5,3.2-1.3,5.8-2.4c2.5-1.1,5.6-2.2,9.4-3.2c3.5-1,7.4-2,11.7-3.1
			c4.2-1.1,8.7-1.8,13.4-2.1c8.5-0.5,16.9,0.3,25.1,2.4c8.2,2.1,16,5.2,23.1,9.4c7.2,4.2,13.9,9.2,20.2,15.1
			c6.3,5.9,11.7,12.4,16.4,19.2c1.6,2.4,3.5,5.5,5.8,9.3c2.3,3.8,4.6,8.8,7.1,15.1c1.3,3.4,2.9,7.8,4.5,13.3c1.7,5.4,3,11.7,4,18.9
			c1,7.1,1.1,15,0.6,23.5C837.9,503.2,835.9,512.1,832.6,521.5z M772.7,447.9c-5-7.8-11.3-14.3-18.8-19.5
			c-7.5-5.1-16.1-7.6-25.8-7.5c-4.9,0.2-9.4,0.9-13.4,2.1c-4,1.2-8.3,2.8-13.1,4.6l-19.8,7.8L724.4,544l28.6-11.2
			c4-1.6,7.5-3.1,10.7-4.7c3.2-1.6,6.3-3.8,9.3-6.8c5.4-5.2,8.8-11,10.3-17.5c1.5-6.5,2.1-12.7,1.7-18.6c-0.4-6-1.3-11.2-2.7-15.6
			c-1.4-4.5-2.4-7.3-2.8-8.4c-0.5-1.3-1.3-3.1-2.3-5.5C776.2,453.4,774.7,450.8,772.7,447.9z"/>
		<path class="st2" d="M1082.6,418.5c-5,15.7-13.2,29.5-24.8,41.3c-11.6,11.9-25,20.8-40.3,26.8c-13.6,5.3-27.9,7.9-43,7.5
			c-15.1-0.3-29.3-3.4-42.7-9.2s-25.4-14.2-35.8-25c-10.5-10.8-18.4-23-23.7-36.6c-1.2-3-2.5-7.1-4-12.2c-1.5-5.1-2.5-11-3.2-17.9
			c-0.7-6.8-0.7-14.2-0.1-22.2c0.7-8,2.5-16.4,5.6-25.3c5.3-15.4,13.7-29,25.3-41c11.6-11.9,24.8-20.8,39.7-26.7
			c8.5-3.3,16.8-5.5,24.8-6.5c8-1,15.4-1.3,22.2-0.9c6.8,0.4,12.8,1.2,18.1,2.4c5.3,1.2,9.4,2.3,12.4,3.3
			c15.4,5.3,29,13.7,40.9,25.1c11.9,11.5,20.9,24.8,26.9,40.1c1.2,3,2.5,7.1,4,12.2c1.5,5.1,2.5,11,3.1,17.6
			c0.6,6.6,0.6,13.9-0.1,21.9C1087.2,401.4,1085.5,409.7,1082.6,418.5z M1015.9,346.9c-7.3-8-16.3-13.3-27.1-15.8
			c-10.8-2.5-21.3-1.8-31.5,2.2c-3.2,1.3-7.8,4-13.7,8.3c-5.9,4.3-11,10.8-15.3,19.4c-2.9,6.4-4.5,13.2-4.6,20.3
			c-0.1,7.1,1.1,14,3.7,20.6c0.6,1.5,1.6,3.5,2.9,6.1c1.3,2.5,3.1,5.2,5.2,7.9c2.2,2.7,4.9,5.5,8.3,8.2c3.4,2.7,7.3,5.1,11.7,7
			c6.3,2.8,13,4.2,20.2,4.3c7.1,0.1,13.9-1,20.3-3.6c4.7-1.9,8.8-4.1,12.4-6.8c3.5-2.7,6.4-5.5,8.7-8.3c2.3-2.8,4.1-5.6,5.6-8.2
			c1.5-2.6,2.5-4.8,3.2-6.3c0.7-1.6,1.4-3.7,2.1-6.2c0.7-2.6,1.3-5.6,1.6-8.9c0.3-3.4,0.2-7.1-0.3-11.2c-0.5-4.1-1.6-8.3-3.3-12.6
			C1023.6,357.4,1020.3,351.9,1015.9,346.9z"/>
		<path class="st2" d="M1253.6,331.8c0.2,2.3,0.5,5.2,0.8,8.7c0.3,3.5,0.1,7.4-0.4,11.8c-0.6,4.4-1.7,9.1-3.4,14.3
			c-1.7,5.1-4.4,10.5-8.1,16.1c-3.1,4.9-7.6,10.3-13.6,16.1c-6,5.8-15.1,11.2-27.4,16c-11.7,4.6-22.2,6.9-31.6,7
			c-9.3,0.1-17.7-1.1-25.1-3.6c-7.4-2.4-13.7-5.7-18.9-9.9c-5.2-4.2-9.4-8.3-12.6-12.5c-1.6-2-3.2-4-4.6-6.2
			c-1.4-2.2-2.8-4.6-4.1-7.2c-1.4-2.6-2.8-5.7-4.4-9.2c-1.6-3.5-3.4-7.7-5.3-12.6l-47.4-120.7l51-20l49.8,126.9
			c1.9,4.9,4.3,9.2,7.2,12.9c2.9,3.7,7.1,6.3,12.7,7.8c1.6,0.2,3.2,0.4,4.7,0.4c1.5,0,3-0.1,4.4-0.4c1.2-0.3,2.3-0.6,3.4-1
			c1-0.4,1.8-0.7,2.4-0.9c6.8-2.7,11.7-7.1,14.8-13.2c3.1-6.1,3.3-12.5,0.7-19.1l-2.6-6.5l-49.4-125.8l51-20l44.6,113.6
			c2.3,5.9,4.6,12,6.9,18.4C1251.3,319.2,1252.8,325.5,1253.6,331.8z"/>
		<path class="st2" d="M1313.7,187.5l60.7,154.7l-50.7,19.9l-60.8-155l-39.1,15.3l-17.7-45.1l129.8-50.9l17.8,45.3L1313.7,187.5z"/>
	</g>
</g>
</svg>
